<svg width="171" height="55" viewBox="0 0 171 55" fill="none" xmlns="http://www.w3.org/2000/svg">
<path d="M87.2534 42.3167V32.9368C85.9717 34.2183 84.6335 35.1982 83.2435 35.8719C81.8535 36.5455 80.3174 36.8847 78.6258 36.8847C76.562 36.8847 74.6819 36.3383 72.9856 35.2547C71.2893 34.1664 69.9558 32.6023 68.9899 30.5671C68.0239 28.5319 67.5386 26.1293 67.5386 23.3686C67.5386 20.6078 68.0239 18.1204 68.9993 16.0993C69.9746 14.0782 71.327 12.5377 73.0563 11.4824C74.7855 10.4271 76.708 9.89948 78.819 9.89948C80.6048 9.89948 82.2069 10.2717 83.6205 11.0066C85.034 11.7462 86.245 12.8722 87.2487 14.3797V13.5741C87.2487 12.3587 87.5408 11.4306 88.1251 10.7993C88.7094 10.168 89.4633 9.84766 90.3915 9.84766C91.3198 9.84766 92.0737 10.1586 92.658 10.7852C93.2423 11.4117 93.5344 12.3398 93.5344 13.5741V42.3167C93.5344 45.2705 92.4883 46.7498 90.3915 46.7498C89.091 46.7498 88.2429 46.3541 87.8471 45.5579C87.4466 44.7617 87.2487 43.6829 87.2487 42.3167H87.2534ZM74.2201 23.3167C74.2201 25.1022 74.5076 26.6428 75.0871 27.9336C75.662 29.2245 76.4206 30.1808 77.363 30.8074C78.3054 31.434 79.3184 31.7449 80.4069 31.7449C81.5943 31.7449 82.6828 31.434 83.6723 30.8074C84.6618 30.1808 85.4581 29.2292 86.0612 27.943C86.6597 26.6616 86.9612 25.0787 86.9612 23.1942C86.9612 21.861 86.7869 20.6597 86.4382 19.5902C86.0895 18.5208 85.6136 17.6304 85.0152 16.9238C84.4121 16.2171 83.7241 15.6894 82.9466 15.3408C82.1692 14.9922 81.3399 14.8179 80.4634 14.8179C78.6776 14.8179 77.1886 15.5575 76.0059 17.0368C74.8185 18.5161 74.2295 20.6078 74.2295 23.3214L74.2201 23.3167Z" fill="white"/>
<path d="M122.333 23.8538V32.6966C122.333 34.0911 122.018 35.1416 121.382 35.8389C120.75 36.5361 119.911 36.8847 118.87 36.8847C117.829 36.8847 117.047 36.5361 116.42 35.8389C115.793 35.1416 115.482 34.0911 115.482 32.6966V22.1013C115.482 20.4288 115.426 19.1286 115.313 18.2052C115.199 17.2818 114.888 16.5186 114.389 15.9297C113.885 15.3361 113.089 15.0393 112 15.0393C109.823 15.0393 108.391 15.7884 107.698 17.2818C107.005 18.7752 106.661 20.9188 106.661 23.7125V32.7013C106.661 34.0816 106.35 35.1228 105.724 35.8295C105.097 36.5361 104.272 36.8895 103.25 36.8895C102.227 36.8895 101.417 36.5361 100.776 35.8295C100.135 35.1228 99.8149 34.0816 99.8149 32.7013V13.6731C99.8149 12.4246 100.102 11.473 100.682 10.8229C101.257 10.1727 102.015 9.84766 102.958 9.84766C103.9 9.84766 104.626 10.1539 105.234 10.7616C105.842 11.3693 106.148 12.2126 106.148 13.2821V13.9133C107.302 12.533 108.537 11.5201 109.851 10.87C111.166 10.2198 112.627 9.89477 114.238 9.89477C115.85 9.89477 117.348 10.2293 118.55 10.8935C119.751 11.5578 120.741 12.566 121.523 13.9133C122.644 12.5471 123.846 11.5389 125.128 10.8794C126.409 10.2198 127.832 9.89477 129.392 9.89477C131.211 9.89477 132.78 10.2528 134.094 10.9689C135.409 11.685 136.394 12.7073 137.044 14.0358C137.614 15.2372 137.897 17.131 137.897 19.7127V32.6966C137.897 34.0911 137.581 35.1416 136.945 35.8389C136.309 36.5361 135.475 36.8847 134.434 36.8847C133.392 36.8847 132.601 36.5314 131.96 35.8247C131.319 35.1181 130.999 34.0769 130.999 32.6966V21.5171C130.999 20.0896 130.937 18.9448 130.815 18.0827C130.692 17.2206 130.363 16.4998 129.83 15.9156C129.293 15.3314 128.482 15.0393 127.394 15.0393C126.518 15.0393 125.684 15.2984 124.897 15.8166C124.11 16.3349 123.497 17.0321 123.059 17.9131C122.574 19.0343 122.329 21.013 122.329 23.8585L122.333 23.8538Z" fill="white"/>
<path d="M150.497 13.5741V14.3797C151.745 12.8392 153.046 11.7038 154.393 10.983C155.741 10.2622 157.268 9.89948 158.973 9.89948C161.018 9.89948 162.903 10.4271 164.628 11.4824C166.348 12.5377 167.709 14.0782 168.708 16.1087C169.707 18.1392 170.207 20.5419 170.207 23.3167C170.207 25.3614 169.919 27.2411 169.34 28.9559C168.765 30.6708 167.973 32.1077 166.965 33.2666C165.956 34.4255 164.769 35.3207 163.398 35.9472C162.027 36.5738 160.552 36.8847 158.978 36.8847C157.079 36.8847 155.482 36.5031 154.191 35.7399C152.9 34.9767 151.67 33.8555 150.501 32.3809V42.3685C150.501 45.2894 149.436 46.7545 147.311 46.7545C146.063 46.7545 145.233 46.3776 144.828 45.6239C144.423 44.8701 144.22 43.7677 144.22 42.3214V13.6213C144.22 12.354 144.498 11.407 145.05 10.7852C145.601 10.1586 146.355 9.84766 147.316 9.84766C148.277 9.84766 149.026 10.168 149.62 10.8087C150.214 11.4494 150.511 12.3728 150.511 13.5741H150.497ZM163.53 23.2461C163.53 21.4935 163.261 19.986 162.724 18.7281C162.187 17.4702 161.447 16.5045 160.495 15.8308C159.543 15.1571 158.493 14.8179 157.338 14.8179C155.501 14.8179 153.955 15.5387 152.697 16.985C151.439 18.4313 150.808 20.556 150.808 23.3686C150.808 26.0162 151.434 28.075 152.683 29.5448C153.932 31.0147 155.486 31.7496 157.338 31.7496C158.441 31.7496 159.468 31.4293 160.406 30.7886C161.348 30.1479 162.102 29.1868 162.672 27.9007C163.242 26.6192 163.525 25.0693 163.525 23.2461H163.53Z" fill="white"/>
<path d="M22.4832 30.1482V28.7594C22.2861 28.9503 22.0805 29.0965 21.8708 29.1939C21.6568 29.2954 21.4219 29.3442 21.1618 29.3442C20.8472 29.3442 20.5578 29.2629 20.2977 29.1005C20.0376 28.9381 19.832 28.7066 19.6852 28.4061C19.5384 28.1056 19.4629 27.7483 19.4629 27.3382C19.4629 26.928 19.5384 26.5585 19.6852 26.258C19.8362 25.9575 20.0418 25.7301 20.3061 25.5718C20.5703 25.4134 20.864 25.3362 21.187 25.3362C21.4597 25.3362 21.7072 25.389 21.9211 25.4987C22.135 25.6083 22.3238 25.7748 22.479 25.9981V25.8804C22.479 25.7017 22.5252 25.5636 22.6133 25.4702C22.7014 25.3769 22.8188 25.3281 22.9614 25.3281C23.1041 25.3281 23.2173 25.3728 23.3096 25.4662C23.4019 25.5596 23.4439 25.6976 23.4439 25.8804V30.1441C23.4439 30.5827 23.2845 30.802 22.9614 30.802C22.7643 30.802 22.6342 30.741 22.5713 30.6233C22.5084 30.5055 22.479 30.3431 22.479 30.1441L22.4832 30.1482ZM20.4864 27.3301C20.4864 27.594 20.5326 27.8214 20.6207 28.0163C20.7088 28.2112 20.8262 28.3493 20.9689 28.4427C21.1115 28.5361 21.2667 28.5807 21.4345 28.5807C21.6149 28.5807 21.7827 28.5361 21.9337 28.4427C22.0847 28.3493 22.2064 28.2072 22.2986 28.0204C22.3909 27.8295 22.4371 27.594 22.4371 27.3138C22.4371 27.1148 22.4119 26.9402 22.3574 26.7778C22.3028 26.6154 22.2315 26.4854 22.1392 26.3839C22.047 26.2783 21.9421 26.2012 21.8204 26.1484C21.703 26.0956 21.5729 26.0712 21.4387 26.0712C21.166 26.0712 20.9395 26.1809 20.7549 26.4002C20.5745 26.6194 20.4823 26.928 20.4823 27.3301H20.4864Z" fill="white"/>
<path d="M27.6726 27.3871V28.6886C27.6726 28.8941 27.6253 29.0472 27.5347 29.1519C27.4442 29.2567 27.3221 29.3051 27.1724 29.3051C27.0228 29.3051 26.9086 29.2527 26.8219 29.1519C26.7314 29.0512 26.6881 28.8941 26.6881 28.6886V27.1292C26.6881 26.8834 26.6802 26.6941 26.6644 26.5571C26.6487 26.4201 26.6054 26.3072 26.5305 26.2226C26.4597 26.134 26.3454 26.0937 26.1879 26.0937C25.8768 26.0937 25.6681 26.2025 25.5697 26.4241C25.4712 26.6417 25.42 26.96 25.42 27.371V28.6926C25.42 28.8941 25.3767 29.0472 25.2861 29.1519C25.1956 29.2567 25.0774 29.3091 24.9317 29.3091C24.786 29.3091 24.6679 29.2567 24.5773 29.1519C24.4867 29.0472 24.4395 28.8941 24.4395 28.6926V25.8922C24.4395 25.7069 24.4828 25.5699 24.5655 25.4732C24.6482 25.3765 24.7584 25.3281 24.8923 25.3281C25.0262 25.3281 25.1325 25.3724 25.2192 25.4611C25.3058 25.5497 25.3491 25.6746 25.3491 25.8318V25.9245C25.5145 25.723 25.6917 25.5699 25.8808 25.4772C26.0698 25.3805 26.2785 25.3322 26.5108 25.3322C26.7432 25.3322 26.9598 25.3805 27.1291 25.4772C27.3024 25.5739 27.4442 25.723 27.5544 25.9204C27.7159 25.719 27.8891 25.5699 28.0742 25.4732C28.2593 25.3765 28.4641 25.3281 28.6886 25.3281C28.9485 25.3281 29.1769 25.3805 29.3659 25.4853C29.5549 25.59 29.6967 25.7391 29.7912 25.9366C29.8739 26.1138 29.9133 26.3919 29.9133 26.7706V28.6805C29.9133 28.886 29.866 29.0391 29.7755 29.1439C29.6849 29.2446 29.5628 29.297 29.4132 29.297C29.2635 29.297 29.1493 29.2446 29.0587 29.1399C28.9682 29.0351 28.9209 28.882 28.9209 28.6805V27.0366C28.9209 26.827 28.913 26.6578 28.8933 26.5329C28.8736 26.408 28.8303 26.2992 28.7516 26.2146C28.6728 26.13 28.5586 26.0856 28.4011 26.0856C28.2751 26.0856 28.1569 26.1219 28.0427 26.1985C27.9285 26.275 27.8419 26.3798 27.7789 26.5087C27.708 26.6739 27.6726 26.964 27.6726 27.3831V27.3871Z" fill="white"/>
<path d="M31.3786 25.8885V26.0063C31.5714 25.7789 31.7684 25.6083 31.9737 25.5027C32.179 25.3972 32.4137 25.3403 32.6735 25.3403C32.9878 25.3403 33.2769 25.4175 33.5367 25.5758C33.8008 25.7301 34.0103 25.9616 34.1611 26.2621C34.312 26.5626 34.3916 26.9199 34.3916 27.3301C34.3916 27.6346 34.3455 27.9107 34.2575 28.1666C34.1695 28.4183 34.048 28.6335 33.8929 28.8041C33.7379 28.9746 33.5577 29.1086 33.3482 29.202C33.1387 29.2954 32.9124 29.3401 32.6735 29.3401C32.3844 29.3401 32.1371 29.2833 31.9402 29.1696C31.7432 29.0559 31.5546 28.8894 31.3745 28.6701V30.1522C31.3745 30.5867 31.211 30.802 30.8842 30.802C30.6914 30.802 30.5657 30.7451 30.5028 30.6355C30.44 30.5218 30.4106 30.3593 30.4106 30.1441V25.8885C30.4106 25.7017 30.4525 25.5596 30.5364 25.4662C30.6202 25.3728 30.7375 25.3281 30.8842 25.3281C31.0308 25.3281 31.144 25.3769 31.2362 25.4703C31.3284 25.5636 31.3703 25.7017 31.3703 25.8804L31.3786 25.8885ZM33.3733 27.3219C33.3733 27.062 33.3314 26.8387 33.2518 26.6519C33.168 26.4651 33.0548 26.323 32.9124 26.2215C32.7657 26.12 32.6065 26.0712 32.4305 26.0712C32.1497 26.0712 31.915 26.1768 31.7223 26.392C31.5295 26.6072 31.4331 26.9199 31.4331 27.3382C31.4331 27.7321 31.5295 28.0366 31.7223 28.2518C31.915 28.4711 32.1497 28.5808 32.4346 28.5808C32.6023 28.5808 32.7615 28.532 32.904 28.4386C33.0465 28.3452 33.1638 28.199 33.2518 28.0123C33.3398 27.8214 33.3817 27.594 33.3817 27.3219H33.3733Z" fill="white"/>
<g clip-path="url(#clip0_3770_3632)">
<path d="M0 28.48C0 28.48 0.0291296 28.1097 0.0707433 27.5605C0.0790661 27.4232 0.0915502 27.2734 0.104034 27.1153C0.108196 26.9655 0.145648 26.7658 0.170616 26.5827C0.224714 26.2041 0.287135 25.8005 0.345394 25.4011C0.42446 25.01 0.51601 24.6272 0.595076 24.2694C0.63669 24.0905 0.669981 23.9157 0.719917 23.7535C0.769854 23.5912 0.815629 23.4372 0.857242 23.2958C1.02786 22.7299 1.14022 22.3555 1.14022 22.3555L3.60375 23.1418C3.60375 23.1418 3.51636 23.4747 3.39152 23.9781C3.35823 24.103 3.32494 24.2403 3.28748 24.3817C3.25003 24.5232 3.22922 24.6813 3.20009 24.8394C3.146 25.1598 3.07941 25.4968 3.02532 25.8338C2.99203 26.1625 2.95457 26.4954 2.92544 26.8032C2.91296 26.9614 2.88383 27.0945 2.88383 27.2651C2.87967 27.4232 2.87551 27.573 2.86718 27.7103C2.85054 28.2636 2.83806 28.6339 2.83806 28.6339L0.00416137 28.48H0Z" fill="white"/>
<path d="M1.59814 21.127C1.59814 21.127 1.75212 20.79 1.98099 20.2865C2.03925 20.1617 2.10167 20.0244 2.16409 19.8788C2.22235 19.7373 2.32638 19.5667 2.40961 19.4044C2.58855 19.0716 2.77997 18.7179 2.97556 18.3643C3.18779 18.0356 3.40002 17.7069 3.5956 17.3948C3.69964 17.2409 3.78703 17.0869 3.8869 16.9538C3.98677 16.8207 4.08248 16.6917 4.16987 16.5752C4.52359 16.1092 4.75663 15.793 4.75663 15.793L6.56266 17.191C6.56266 17.191 6.36708 17.478 6.07162 17.9108C5.99671 18.0189 5.91765 18.1354 5.83442 18.2561C5.74703 18.3768 5.67629 18.5182 5.59306 18.6597C5.43077 18.9426 5.25183 19.2422 5.07705 19.5417C4.9314 19.8413 4.78159 20.145 4.64427 20.428C4.57769 20.5736 4.50278 20.6901 4.44452 20.8482C4.38626 20.9938 4.328 21.1353 4.27807 21.2643L3.93267 22.1214L1.60231 21.1228L1.59814 21.127Z" fill="white"/>
<path d="M5.59693 14.8151C5.59693 14.8151 5.85494 14.553 6.24195 14.1535C6.33766 14.0537 6.44585 13.9455 6.55405 13.8332C6.65808 13.7208 6.81206 13.6002 6.94522 13.4753C7.22403 13.2257 7.52365 12.9636 7.82327 12.6973C8.13121 12.4601 8.43915 12.2271 8.73045 12.0066C8.8761 11.8984 9.00926 11.7819 9.15075 11.6946C9.29223 11.603 9.42124 11.5157 9.54608 11.4366C10.033 11.1204 10.3575 10.9082 10.3575 10.9082L11.4145 12.585C11.4145 12.585 11.1274 12.7888 10.6988 13.0967C10.5906 13.1716 10.4741 13.2548 10.3534 13.3422C10.2285 13.4254 10.112 13.5378 9.98302 13.6418C9.72918 13.8498 9.45869 14.0745 9.19236 14.2992C8.94684 14.5363 8.70132 14.7735 8.47244 14.994C8.35592 15.1105 8.24773 15.1979 8.13953 15.3227C8.03134 15.4392 7.93146 15.5515 7.83991 15.6555C7.46955 16.0675 7.21987 16.3421 7.21987 16.3421L5.59277 14.8109L5.59693 14.8151Z" fill="white"/>
<path d="M11.4729 10.2855C11.4729 10.2855 11.8058 10.1274 12.3052 9.88609C12.43 9.82784 12.5674 9.76126 12.7089 9.69469C12.8503 9.62396 13.0293 9.56155 13.1957 9.49498C13.5411 9.35768 13.9073 9.21621 14.2735 9.07059C14.6439 8.95409 15.0101 8.84175 15.3555 8.73357C15.5303 8.68365 15.6926 8.62124 15.8549 8.58795C16.0171 8.5505 16.167 8.51722 16.3084 8.48393C16.8702 8.35495 17.2448 8.26758 17.2448 8.26758L17.5985 9.91105C17.5985 9.91105 17.2572 10.0067 16.7454 10.1482C16.6164 10.1815 16.4791 10.2231 16.3334 10.2605C16.1836 10.2938 16.038 10.3604 15.8798 10.4145C15.5677 10.5268 15.2348 10.6433 14.9019 10.764C14.5856 10.9013 14.2694 11.0428 13.9739 11.1717C13.8241 11.2425 13.6868 11.2924 13.5453 11.3673C13.4038 11.4422 13.2706 11.5129 13.15 11.5795C12.6589 11.8416 12.3343 12.0122 12.3343 12.0122L11.4604 10.2897L11.4729 10.2855Z" fill="white"/>
<path d="M18.5015 8.05901C18.5015 8.05901 18.8677 8.02572 19.4211 7.97579C19.5585 7.96331 19.7083 7.95083 19.8664 7.93419C20.0287 7.9217 20.1868 7.89674 20.3741 7.9009C20.7403 7.9009 21.1315 7.89674 21.5226 7.89258H21.8139H21.9596H22.0927H22.126C22.3091 7.90506 22.4881 7.91754 22.6587 7.93002C22.8335 7.94251 22.9999 7.95499 23.158 7.96747C23.312 7.97579 23.4743 8.00076 23.62 8.02156C24.2025 8.10061 24.5896 8.1547 24.5896 8.1547L24.3815 9.51525C24.3815 9.51525 24.0361 9.48196 23.5159 9.43203C23.3869 9.41955 23.2496 9.40291 23.0873 9.40291C22.9292 9.39875 22.7627 9.39459 22.5879 9.38627C22.4132 9.3821 22.2342 9.37794 22.0553 9.36962C21.8888 9.37794 21.7224 9.38627 21.5559 9.39459C21.2064 9.41123 20.8568 9.42787 20.5322 9.44035C20.3741 9.44035 20.1993 9.47364 20.0453 9.49028C19.8872 9.51109 19.7374 9.53189 19.6001 9.54853C19.0508 9.62343 18.6846 9.66919 18.6846 9.66919L18.5056 8.05068L18.5015 8.05901Z" fill="white"/>
<path d="M25.8171 8.41602C25.8171 8.41602 26.1708 8.52003 26.7034 8.67398C26.8366 8.71142 26.9822 8.75303 27.132 8.7988C27.2819 8.83625 27.4525 8.91114 27.6231 8.97355C27.9643 9.10253 28.3264 9.23983 28.6926 9.37714C29.038 9.5394 29.3833 9.70583 29.7079 9.85978C29.8661 9.93883 30.0284 10.0054 30.1698 10.0886C30.3113 10.1718 30.4445 10.2467 30.5693 10.3216C31.0645 10.6087 31.3933 10.8001 31.3933 10.8001L30.8357 11.7196C30.8357 11.7196 30.5194 11.5532 30.0408 11.3035C29.9202 11.2411 29.7953 11.1746 29.658 11.0997C29.5248 11.0248 29.3709 10.9707 29.2169 10.9041C28.9089 10.771 28.5802 10.6337 28.2515 10.4922C27.9185 10.3799 27.5856 10.2717 27.2735 10.1677C27.1154 10.1177 26.9781 10.0553 26.8158 10.0262C26.6618 9.98876 26.5162 9.95131 26.3788 9.92219C25.8379 9.7932 25.48 9.70583 25.48 9.70583L25.8212 8.42434L25.8171 8.41602Z" fill="white"/>
<path d="M32.4089 11.4961C32.4089 11.4961 32.696 11.7249 33.1288 12.0744C33.237 12.1618 33.3535 12.2533 33.4783 12.3532C33.6032 12.4489 33.728 12.582 33.8612 12.6985C34.1234 12.944 34.4022 13.2103 34.681 13.4724C34.9348 13.7553 35.1887 14.0341 35.4259 14.3004C35.5424 14.4335 35.6672 14.5542 35.7629 14.6873C35.8628 14.8163 35.9544 14.9411 36.0418 15.0535C36.3871 15.5028 36.6119 15.8024 36.6119 15.8024L35.9877 16.2601C35.9877 16.2601 35.7546 15.9813 35.4092 15.5652C35.3218 15.4612 35.2303 15.3489 35.1304 15.2282C35.0347 15.1076 34.9099 14.9994 34.7933 14.8746C34.5561 14.6333 34.3023 14.3753 34.0526 14.1173C33.7821 13.8843 33.5158 13.6513 33.262 13.435C33.133 13.3268 33.0248 13.2145 32.8916 13.1229C32.7626 13.0272 32.6419 12.9399 32.5296 12.8566C32.0801 12.5279 31.7847 12.3116 31.7847 12.3116L32.4089 11.5003V11.4961Z" fill="white"/>
<path d="M37.2817 16.8223C37.2817 16.8223 37.4606 17.1468 37.727 17.6294C37.7935 17.7501 37.8684 17.8832 37.9433 18.0205C38.0224 18.1578 38.0848 18.3243 38.1597 18.4824C38.3054 18.8069 38.4594 19.1523 38.6175 19.4976C38.7423 19.8512 38.8672 20.2049 38.9878 20.5378C39.0419 20.7042 39.1127 20.8623 39.146 21.0162C39.1876 21.1743 39.225 21.32 39.2625 21.4573C39.404 21.9982 39.4997 22.3643 39.4997 22.3643L39.0419 22.4766C39.0419 22.4766 38.9338 22.1271 38.7715 21.6071C38.7298 21.4781 38.6882 21.3366 38.6425 21.1868C38.6008 21.037 38.5259 20.8873 38.4677 20.725C38.3387 20.4088 38.2055 20.0718 38.0682 19.7347C37.9059 19.4144 37.7436 19.0898 37.5938 18.7903C37.5147 18.6405 37.4523 18.4949 37.3691 18.3576C37.2858 18.2203 37.2068 18.0954 37.136 17.9748C36.8489 17.5005 36.6533 17.1842 36.6533 17.1842L37.2775 16.8223H37.2817Z" fill="white"/>
<path d="M39.7203 23.5488C39.7203 23.5488 39.7328 23.6404 39.7536 23.8026C39.7661 23.8817 39.7744 23.9815 39.7911 24.0939C39.8035 24.2062 39.8243 24.331 39.8368 24.4725C39.8535 24.7554 39.8951 25.08 39.9034 25.4295C39.9076 25.6042 39.9159 25.7873 39.9201 25.9662C39.9325 26.1493 39.9201 26.3365 39.9201 26.5237C39.9159 26.711 39.9201 26.8899 39.9076 27.0854C39.8951 27.2685 39.8784 27.4474 39.866 27.618C39.8535 27.7886 39.841 27.9592 39.8285 28.1173C39.8202 28.2754 39.7869 28.4252 39.7703 28.5625C39.6829 29.1158 39.6288 29.482 39.6288 29.482L39.4623 29.4528C39.4623 29.4528 39.5039 29.0867 39.5663 28.5417C39.5788 28.4044 39.6038 28.2587 39.6038 28.1006C39.608 27.9425 39.6163 27.7761 39.6204 27.6013C39.6246 27.4266 39.6329 27.2477 39.6371 27.0688C39.6412 26.8982 39.6288 26.7068 39.6288 26.5279C39.6204 26.3448 39.6246 26.1617 39.608 25.9828C39.5955 25.8039 39.583 25.625 39.5663 25.4544C39.5414 25.1132 39.4914 24.797 39.4623 24.5266C39.4457 24.3934 39.4207 24.2645 39.4041 24.1563C39.3832 24.044 39.3708 23.9483 39.3541 23.8692C39.325 23.7111 39.3125 23.6196 39.3125 23.6196L39.7286 23.5571L39.7203 23.5488Z" fill="white"/>
<path d="M7.32012 45.9013C7.32012 45.9013 7.10372 45.6018 6.77914 45.1524C6.70007 45.0401 6.60852 44.9194 6.51697 44.7904C6.42542 44.6698 6.32555 44.495 6.22567 44.3411C6.02593 44.0166 5.8137 43.6671 5.59731 43.3217C5.41005 42.9722 5.23111 42.6227 5.06049 42.294C4.97726 42.1276 4.88987 41.9737 4.82329 41.8197C4.75671 41.6616 4.69429 41.516 4.63603 41.3828C4.40299 40.8419 4.24902 40.48 4.24902 40.48L6.64181 39.498C6.64181 39.498 6.79162 39.8101 7.01634 40.2761C7.07459 40.3926 7.13285 40.5174 7.19527 40.6547C7.25769 40.7879 7.34508 40.921 7.42415 41.0625C7.58644 41.3412 7.75706 41.645 7.92767 41.9404C8.11494 42.215 8.29804 42.4896 8.47281 42.7475C8.56437 42.8765 8.63095 42.9972 8.73914 43.1262C8.83902 43.251 8.93057 43.3675 9.01379 43.4798C9.35503 43.9167 9.5839 44.2079 9.5839 44.2079L7.31595 45.9138L7.32012 45.9013Z" fill="white"/>
<path d="M3.81613 39.2443C3.81613 39.2443 3.71626 38.8865 3.56645 38.354C3.529 38.2208 3.48739 38.0752 3.44577 37.9212C3.4 37.7756 3.37087 37.5801 3.32925 37.4012C3.25435 37.0309 3.17112 36.6356 3.09206 36.2403C3.04212 35.8534 2.99218 35.4623 2.94641 35.1003C2.9256 34.9172 2.89231 34.7425 2.88815 34.5761C2.87983 34.4096 2.8715 34.2515 2.86318 34.1059C2.82989 33.5192 2.80908 33.1323 2.80908 33.1323L5.08951 33.0449C5.08951 33.0449 5.1228 33.3903 5.1769 33.9145C5.18939 34.0435 5.20187 34.1849 5.21852 34.3347C5.231 34.4845 5.26845 34.6385 5.29342 34.8007C5.34752 35.1211 5.40578 35.4664 5.46404 35.8076C5.5431 36.1322 5.62633 36.4608 5.70124 36.7646C5.74285 36.9227 5.76366 37.0558 5.81775 37.2139C5.86769 37.3637 5.91347 37.5093 5.95508 37.6383C6.1257 38.1667 6.24221 38.5162 6.24221 38.5162L3.81613 39.2485V39.2443Z" fill="white"/>
<path d="M2.82568 31.8387C2.82568 31.8387 2.85481 31.4684 2.89643 30.9192C2.90891 30.7819 2.91723 30.6321 2.92972 30.474C2.93804 30.3201 2.97549 30.1287 3.00046 29.9456C3.05456 29.5753 3.11282 29.18 3.17108 28.7889C3.2543 28.4103 3.34169 28.0317 3.42076 27.6739C3.46237 27.4949 3.4915 27.3244 3.5456 27.1663C3.59554 27.0081 3.64131 26.8542 3.68293 26.7169C3.85354 26.1594 3.9659 25.7891 3.9659 25.7891L5.85516 26.3924C5.85516 26.3924 5.76777 26.7335 5.63877 27.2453C5.60548 27.3701 5.57219 27.5116 5.53058 27.6572C5.48896 27.8028 5.47232 27.9609 5.43902 28.1232C5.38077 28.4477 5.31835 28.7931 5.25592 29.1384C5.21847 29.4754 5.18518 29.8166 5.15189 30.1328C5.13941 30.2951 5.11028 30.4366 5.11028 30.5988C5.10612 30.7569 5.09779 30.9067 5.09363 31.0482C5.07282 31.6015 5.06034 31.9718 5.06034 31.9718L2.82985 31.847L2.82568 31.8387Z" fill="white"/>
<path d="M4.41113 24.5934C4.41113 24.5934 4.5651 24.2563 4.79398 23.7529C4.85224 23.6281 4.91466 23.4908 4.97708 23.3451C5.0395 23.1995 5.13937 23.0414 5.2226 22.8791C5.39738 22.5546 5.5888 22.2051 5.77606 21.8598C5.98413 21.5352 6.1922 21.2107 6.38778 20.907C6.48766 20.7572 6.57088 20.6032 6.67908 20.4743C6.77895 20.3411 6.87466 20.2163 6.95789 20.0998C7.30745 19.638 7.53632 19.3301 7.53632 19.3301L8.8638 20.3619C8.8638 20.3619 8.66405 20.6532 8.36443 21.0942C8.28953 21.2024 8.2063 21.323 8.12308 21.4479C8.03153 21.5685 7.96078 21.7142 7.87339 21.8556C7.70694 22.1427 7.528 22.4464 7.34906 22.7502C7.19925 23.0581 7.04528 23.3701 6.90379 23.6614C6.83305 23.8111 6.75815 23.936 6.69989 24.0857C6.64163 24.2314 6.58337 24.3728 6.53343 24.5018C6.32536 25.0177 6.18804 25.3589 6.18804 25.3589L4.41113 24.5975V24.5934Z" fill="white"/>
<path d="M8.36475 18.3708C8.36475 18.3708 8.62691 18.1087 9.01808 17.7176C9.11379 17.6177 9.22199 17.5137 9.33435 17.4014C9.45086 17.289 9.5549 17.1684 9.70055 17.0519C9.97936 16.8147 10.279 16.5609 10.5744 16.3071L10.7991 16.1199L10.9115 16.0283L10.9656 15.9826L11.0114 15.9451L11.0405 15.9243C11.1862 15.8161 11.3318 15.7121 11.4733 15.6123C11.6148 15.5124 11.7479 15.4126 11.8769 15.321C12.0018 15.2253 12.1433 15.1421 12.264 15.0631C12.7592 14.751 13.0921 14.543 13.0921 14.543L13.8078 15.7204C13.8078 15.7204 13.5207 15.916 13.0921 16.2156C12.9839 16.2905 12.8673 16.3612 12.7425 16.4694C12.6177 16.5692 12.4845 16.6732 12.3513 16.7773C12.214 16.8854 12.0767 16.9978 11.931 17.106C11.8104 17.2183 11.6855 17.3306 11.5648 17.443C11.3068 17.6801 11.053 17.9131 10.8116 18.1378C10.691 18.2377 10.5786 18.3791 10.4704 18.4915C10.3622 18.608 10.2623 18.7203 10.1666 18.8202C9.7921 19.2279 9.54241 19.5025 9.54241 19.5025L8.36475 18.375V18.3708Z" fill="white"/>
<path d="M14.199 13.9436C14.199 13.9436 14.5361 13.7938 15.0437 13.5691C15.1686 13.515 15.3059 13.4526 15.4516 13.386C15.5889 13.3153 15.7678 13.2654 15.9384 13.203C16.2838 13.0823 16.65 12.9533 17.0162 12.8285C17.3866 12.7286 17.757 12.6371 18.1024 12.5456C18.2771 12.504 18.4394 12.4499 18.6017 12.4249C18.764 12.3958 18.918 12.3708 19.0553 12.3459C19.6171 12.2502 19.9916 12.1836 19.9916 12.1836L20.1539 13.2446C20.1539 13.2446 19.8044 13.3195 19.28 13.436C19.1469 13.4651 19.0054 13.4942 18.8556 13.5275C18.7058 13.5566 18.5518 13.6149 18.3895 13.6606C18.0691 13.7605 17.7278 13.8645 17.3866 13.9685C17.062 14.0975 16.7333 14.2265 16.4295 14.3472C16.2755 14.4137 16.1299 14.4553 15.9884 14.5344C15.8469 14.6051 15.7096 14.6717 15.5889 14.7341C15.0937 14.9796 14.7608 15.146 14.7608 15.146L14.1948 13.9477L14.199 13.9436Z" fill="white"/>
<path d="M21.2275 12.0623C21.2275 12.0623 21.5979 12.054 22.1514 12.0415C22.2887 12.0415 22.4385 12.0332 22.6008 12.0332C22.7589 12.0249 22.9379 12.0457 23.1168 12.054C23.4747 12.0748 23.8575 12.0956 24.2404 12.1206C24.6149 12.1705 24.9894 12.2246 25.3431 12.2745C25.5179 12.3036 25.6885 12.3161 25.8467 12.3536C26.0048 12.3868 26.1546 12.4243 26.2919 12.4534C26.8454 12.5782 27.2116 12.6614 27.2116 12.6614L27.0285 13.4104C27.0285 13.4104 26.6706 13.348 26.138 13.2523C26.0048 13.2273 25.8591 13.2023 25.7093 13.1732C25.5554 13.1399 25.3931 13.1358 25.2225 13.1191C24.8854 13.0858 24.5275 13.0525 24.1696 13.0151C23.8159 13.0109 23.458 13.0026 23.1251 12.9985C22.9587 12.9985 22.8005 12.9818 22.6424 12.9985C22.4843 13.0068 22.3345 13.0193 22.1971 13.0276C21.6437 13.065 21.2733 13.09 21.2733 13.09L21.2275 12.0665V12.0623Z" fill="white"/>
<path d="M28.3849 13.0117C28.3849 13.0117 28.7303 13.1449 29.2463 13.3446C29.3753 13.3945 29.5168 13.4486 29.6625 13.5068C29.8123 13.5609 29.9662 13.6483 30.1244 13.7232C30.4448 13.8771 30.786 14.0436 31.1273 14.2058C31.4518 14.3972 31.7764 14.5886 32.0802 14.7675C32.23 14.8591 32.384 14.934 32.513 15.0338C32.6462 15.1253 32.771 15.2127 32.8834 15.2959C33.3411 15.6205 33.6491 15.8368 33.6491 15.8368L33.3702 16.2154C33.3702 16.2154 33.0623 16.0199 32.6045 15.7203C32.488 15.6454 32.3673 15.5664 32.2342 15.4832C32.1052 15.3916 31.9554 15.3251 31.8056 15.2418C31.5059 15.0837 31.1855 14.909 30.8609 14.7384C30.5322 14.5969 30.1993 14.4513 29.8913 14.3182C29.7332 14.2558 29.5917 14.1809 29.4419 14.1309C29.2921 14.081 29.1506 14.0311 29.0174 13.9895C28.4931 13.8106 28.1436 13.6941 28.1436 13.6941L28.3891 13.0159L28.3849 13.0117Z" fill="white"/>
<path d="M34.5769 16.5938C34.5769 16.5938 34.6435 16.6562 34.7642 16.7643C34.8224 16.8184 34.8973 16.885 34.9764 16.9641C35.0596 17.0431 35.1553 17.1222 35.251 17.2262C35.4466 17.43 35.6838 17.6547 35.921 17.9168C36.0375 18.0458 36.1582 18.1831 36.2831 18.3163C36.4079 18.4494 36.5203 18.5992 36.6409 18.7448C36.7575 18.8904 36.8781 19.0278 36.9905 19.1817C37.0945 19.3315 37.2027 19.4771 37.3026 19.6144C37.4025 19.7559 37.5023 19.8932 37.5939 20.0222C37.6896 20.147 37.7603 20.2843 37.8352 20.4008C38.1265 20.8793 38.318 21.1996 38.318 21.1996L38.1723 21.2828C38.1723 21.2828 37.9684 20.9791 37.6646 20.5214C37.5856 20.4091 37.5148 20.2801 37.4108 20.1553C37.3109 20.0305 37.211 19.8973 37.1029 19.76C36.9947 19.6227 36.8865 19.4813 36.7741 19.3398C36.6701 19.2067 36.5369 19.0694 36.4162 18.9321C36.2914 18.7948 36.1749 18.6533 36.05 18.5285C35.9252 18.3995 35.8003 18.2705 35.6797 18.1498C35.4383 17.9044 35.2011 17.6963 35.0014 17.5091C34.9015 17.4176 34.8016 17.3344 34.7184 17.2636C34.631 17.1887 34.5561 17.1263 34.4978 17.0764C34.373 16.9724 34.3022 16.91 34.3022 16.91L34.5811 16.5979L34.5769 16.5938Z" fill="white"/>
<path d="M24.1275 54.5414C24.1275 54.5414 23.7696 54.4498 23.2328 54.3125C23.0996 54.2792 22.954 54.2418 22.8 54.2002C22.6543 54.1669 22.4671 54.0962 22.2881 54.0421C21.9261 53.9214 21.5391 53.7924 21.1521 53.6676C20.7817 53.522 20.4238 53.368 20.0785 53.2266C19.9078 53.1517 19.7414 53.0934 19.5916 53.0144C19.4418 52.9395 19.2961 52.8646 19.1671 52.798C18.6386 52.5317 18.2891 52.3528 18.2891 52.3528L19.4917 50.0645C19.4917 50.0645 19.808 50.2059 20.2782 50.4181C20.3947 50.4722 20.5237 50.5304 20.661 50.5929C20.7942 50.6553 20.9482 50.701 21.098 50.7593C21.4018 50.8716 21.7264 50.9923 22.0509 51.1046C22.3714 51.1962 22.6918 51.2877 22.9873 51.3751C23.1412 51.4167 23.2702 51.4666 23.4325 51.4957C23.5865 51.529 23.7363 51.5581 23.8695 51.5873C24.4104 51.6996 24.7725 51.7787 24.7725 51.7787L24.1275 54.5414Z" fill="white"/>
<path d="M17.1613 51.6923C17.1613 51.6923 16.8576 51.4842 16.3998 51.1722C16.2874 51.0931 16.1626 51.0099 16.0294 50.9184C15.9004 50.8352 15.7506 50.7062 15.605 50.5938C15.3095 50.3608 14.9933 50.107 14.677 49.8574C14.3899 49.5911 14.1027 49.3248 13.8322 49.0793C13.6991 48.9545 13.5617 48.838 13.4494 48.7132C13.3329 48.5925 13.2247 48.476 13.1248 48.3679C12.7253 47.9393 12.459 47.6564 12.459 47.6564L14.1527 46.1211C14.1527 46.1211 14.4023 46.3666 14.7769 46.7327C14.8684 46.8243 14.9725 46.9241 15.0765 47.0281C15.1805 47.1363 15.3095 47.2278 15.4302 47.336C15.6799 47.5482 15.9462 47.7729 16.2084 47.9976C16.4789 48.1931 16.7535 48.3928 17.0074 48.5801C17.1405 48.6716 17.2404 48.7631 17.386 48.8463C17.5192 48.9296 17.6482 49.0086 17.7647 49.0835C18.235 49.3789 18.5471 49.5745 18.5471 49.5745L17.1572 51.6964L17.1613 51.6923Z" fill="white"/>
<path d="M11.6437 46.6575C11.6437 46.6575 11.4273 46.3579 11.1069 45.9086C11.0278 45.7962 10.9404 45.6714 10.8447 45.5424C10.7532 45.4176 10.6575 45.2512 10.5576 45.0931C10.362 44.7727 10.1539 44.4357 9.94587 44.0945C9.76694 43.7492 9.588 43.4038 9.42154 43.0793C9.34248 42.917 9.25093 42.7631 9.18851 42.6091C9.12192 42.4552 9.0595 42.3096 9.0054 42.1764C8.77653 41.6397 8.62256 41.286 8.62256 41.286L10.4577 40.5371C10.4577 40.5371 10.6117 40.8533 10.8406 41.3276C10.8988 41.4483 10.9571 41.5773 11.0237 41.7104C11.0861 41.8477 11.1735 41.9809 11.2525 42.1265C11.4148 42.4136 11.5896 42.7173 11.7644 43.021C11.9558 43.304 12.1431 43.5869 12.322 43.8532C12.4177 43.9863 12.4843 44.1111 12.5883 44.2401C12.6882 44.3649 12.7798 44.4814 12.863 44.5938C13.2042 45.0307 13.4331 45.3219 13.4331 45.3219L11.6437 46.6575Z" fill="white"/>
<path d="M8.19793 40.0881C8.19793 40.0881 8.09805 39.7303 7.94824 39.1977C7.91079 39.0646 7.86918 38.919 7.82756 38.765C7.78179 38.6152 7.75266 38.428 7.71521 38.2491C7.6403 37.8871 7.56124 37.5002 7.48633 37.1132C7.43639 36.7304 7.38646 36.3476 7.34068 35.9898C7.31988 35.8109 7.28659 35.6403 7.28242 35.4739C7.2741 35.3075 7.26578 35.1535 7.25746 35.0079C7.22833 34.4296 7.20752 34.0468 7.20752 34.0468L8.88455 33.9844C8.88455 33.9844 8.91784 34.338 8.96778 34.8664C8.98026 34.9996 8.99275 35.141 9.00939 35.2908C9.01772 35.4448 9.05933 35.5987 9.08014 35.7651C9.13423 36.0897 9.19665 36.4392 9.25491 36.7887C9.33814 37.1215 9.42137 37.4585 9.50043 37.7706C9.54205 37.9287 9.56702 38.0743 9.61695 38.2283C9.66689 38.3781 9.71267 38.5237 9.75428 38.6527C9.92489 39.1811 10.0414 39.5306 10.0414 39.5306L8.19376 40.0923L8.19793 40.0881Z" fill="white"/>
<path d="M7.22414 32.7811C7.22414 32.7811 7.25743 32.415 7.30321 31.8616C7.31569 31.7243 7.32818 31.5745 7.34066 31.4164C7.35731 31.2583 7.36147 31.0961 7.39476 30.913C7.45718 30.551 7.5196 30.1682 7.58618 29.7813L7.63612 29.4942L7.66109 29.3527L7.67357 29.282L7.68605 29.2237L7.69438 29.1905C7.74015 29.0116 7.78177 28.841 7.82338 28.6704C7.86499 28.5039 7.90661 28.3417 7.94406 28.1877C7.97735 28.0379 8.03145 27.8798 8.07722 27.7425C8.25616 27.185 8.37684 26.8105 8.37684 26.8105L9.67935 27.2516C9.67935 27.2516 9.5878 27.5886 9.44632 28.092C9.41302 28.2169 9.36725 28.35 9.34228 28.5081C9.30899 28.6621 9.2757 28.8285 9.24241 28.9991C9.20912 29.1697 9.17166 29.3444 9.13421 29.5233C9.11341 29.6856 9.0926 29.852 9.07179 30.0184C9.02602 30.3638 8.98024 30.7091 8.93863 31.0336C8.9095 31.1917 8.91366 31.3665 8.90534 31.5246C8.89701 31.6827 8.89285 31.8325 8.88453 31.974C8.85956 32.5273 8.84292 32.8976 8.84292 32.8976L7.21582 32.7936L7.22414 32.7811Z" fill="white"/>
<path d="M8.84693 25.6368C8.84693 25.6368 9.00923 25.304 9.25475 24.8089C9.31717 24.684 9.38375 24.5509 9.45033 24.4053C9.51275 24.2638 9.61679 24.1099 9.70418 23.9518C9.89144 23.6397 10.0912 23.3027 10.2868 22.9698C10.5073 22.6578 10.7279 22.3457 10.9359 22.0545C11.0441 21.9089 11.1357 21.7632 11.2397 21.6384C11.3438 21.5136 11.4436 21.3929 11.5393 21.2848C11.9097 20.8479 12.1552 20.5566 12.1552 20.5566L12.9625 21.2681C12.9625 21.2681 12.742 21.551 12.4132 21.9754C12.33 22.0795 12.2426 22.196 12.1469 22.3166C12.0512 22.4373 11.9721 22.5787 11.8764 22.716C11.6933 22.999 11.4977 23.2985 11.3063 23.5981C11.1399 23.906 10.9734 24.2139 10.8153 24.5051C10.7404 24.6549 10.6571 24.7797 10.5947 24.9337C10.5323 25.0793 10.4699 25.2166 10.4158 25.3414C10.1952 25.849 10.0454 26.1902 10.0454 26.1902L8.84277 25.6327L8.84693 25.6368Z" fill="white"/>
<path d="M13.0249 19.6803C13.0249 19.6803 13.3037 19.4348 13.7199 19.0687C13.8239 18.9771 13.9362 18.8773 14.0569 18.7732C14.1734 18.6651 14.3232 18.5652 14.4647 18.457C14.7519 18.2407 15.0598 18.0118 15.3678 17.783C15.6882 17.5833 16.0086 17.3794 16.3124 17.1922C16.4664 17.1007 16.6037 17.0008 16.7493 16.9301C16.895 16.8552 17.0281 16.7844 17.1571 16.7179C17.6607 16.4599 17.9977 16.2852 17.9977 16.2852L18.339 16.9758C18.339 16.9758 18.0269 17.1547 17.5525 17.4252C17.436 17.4918 17.307 17.5666 17.1738 17.6415C17.0365 17.7164 16.9075 17.8205 16.766 17.912C16.4872 18.1034 16.1875 18.3073 15.8921 18.5111C15.6174 18.7358 15.3386 18.9605 15.0806 19.1685C14.9516 19.2767 14.8226 19.3641 14.7103 19.4806C14.5937 19.5887 14.4855 19.6928 14.3857 19.7885C13.9862 20.1712 13.7199 20.4292 13.7199 20.4292L13.0291 19.6761L13.0249 19.6803Z" fill="white"/>
<path d="M19.1174 15.8094C19.1174 15.8094 19.467 15.6888 19.9913 15.5099C20.1203 15.4641 20.266 15.4183 20.4158 15.3642C20.5656 15.3102 20.7404 15.2769 20.9068 15.2311C21.2522 15.1437 21.6184 15.0522 21.9846 14.9565C22.355 14.8941 22.7254 14.8317 23.0707 14.7734C23.2455 14.7485 23.412 14.7069 23.5743 14.6985C23.7366 14.686 23.8864 14.6736 24.0279 14.6611C24.5896 14.6153 24.96 14.582 24.96 14.582L24.9891 15.0522C24.9891 15.0522 24.6271 15.098 24.0861 15.1687C23.9488 15.1853 23.8031 15.2061 23.6492 15.2228C23.4952 15.2353 23.3329 15.2852 23.1665 15.3143C22.8335 15.385 22.4757 15.4599 22.122 15.5348C21.7766 15.6388 21.4312 15.7387 21.1066 15.8386C20.9443 15.8885 20.7903 15.9259 20.6405 15.9842C20.4907 16.0424 20.3534 16.0965 20.2244 16.1465C19.7084 16.3503 19.363 16.4835 19.363 16.4835L19.1133 15.8053L19.1174 15.8094Z" fill="white"/>
<path d="M26.1665 14.5745C26.1665 14.5745 26.2581 14.5745 26.4204 14.587C26.4995 14.587 26.5993 14.5953 26.7117 14.5994C26.824 14.6078 26.9489 14.6078 27.0904 14.6202C27.3692 14.6494 27.6979 14.6702 28.0475 14.7201C28.2223 14.7451 28.4012 14.77 28.5801 14.795C28.7632 14.8158 28.9422 14.8616 29.1294 14.8907C29.3125 14.9281 29.4915 14.9531 29.6787 15.003C29.8535 15.0488 30.0283 15.0904 30.1948 15.1362C30.3612 15.1778 30.5235 15.2194 30.6775 15.261C30.8314 15.2943 30.9729 15.3525 31.1061 15.3983C31.6346 15.5772 31.9883 15.6979 31.9883 15.6979L31.93 15.856C31.93 15.856 31.5763 15.7519 31.052 15.598C30.9188 15.5606 30.7815 15.5106 30.6234 15.4815C30.4694 15.4482 30.3029 15.4149 30.1365 15.3775C29.9659 15.34 29.7911 15.3026 29.6122 15.2651C29.4457 15.2319 29.2543 15.2111 29.0753 15.1819C28.8922 15.157 28.7133 15.1237 28.5344 15.107C28.3554 15.0904 28.1807 15.0738 28.0059 15.0571C27.6646 15.0238 27.3442 15.0197 27.0737 14.9989C26.9364 14.9905 26.8074 14.9989 26.695 14.9905C26.5827 14.9905 26.4828 14.9905 26.4037 14.9905C26.2415 14.9905 26.1499 14.9905 26.1499 14.9905L26.1624 14.5703L26.1665 14.5745Z" fill="white"/>
<path d="M42.5582 50.362C42.5582 50.362 42.2253 50.5201 41.726 50.7614C41.6011 50.8197 41.4638 50.8862 41.3223 50.957C41.1892 51.0277 41.0019 51.0943 40.8271 51.165C40.4734 51.3065 40.0947 51.4562 39.716 51.606C39.3373 51.7309 38.9628 51.8432 38.6091 51.9555C38.4343 52.0096 38.2637 52.0679 38.0973 52.1095C37.9308 52.1469 37.7768 52.1844 37.6312 52.2177C37.0569 52.3508 36.6741 52.4423 36.6741 52.4423L36.1206 49.9168C36.1206 49.9168 36.4535 49.8211 36.9529 49.6838C37.0777 49.6505 37.2109 49.6131 37.3565 49.5715C37.498 49.5298 37.6437 49.4716 37.7976 49.4175C38.1014 49.3052 38.4302 49.1928 38.7506 49.0722C39.0544 48.9349 39.3582 48.8017 39.6411 48.6727C39.7868 48.6062 39.9158 48.5604 40.0614 48.4772C40.2029 48.4023 40.3361 48.3316 40.4568 48.265C40.9436 48.0029 41.2724 47.8281 41.2724 47.8281L42.5582 50.3578V50.362Z" fill="white"/>
<path d="M35.3923 52.6539C35.3923 52.6539 35.0261 52.6914 34.4727 52.7455C34.3353 52.758 34.1855 52.7746 34.0274 52.7912C33.8776 52.812 33.6779 52.8079 33.4948 52.8162C33.1161 52.8245 32.7124 52.837 32.3088 52.8453C31.9176 52.8287 31.5264 52.8079 31.1602 52.7912C30.9771 52.7788 30.7982 52.7788 30.6317 52.758C30.4653 52.7372 30.3071 52.7205 30.1615 52.7039C29.5789 52.6331 29.1919 52.5874 29.1919 52.5874L29.504 50.3239C29.504 50.3239 29.8536 50.3489 30.3737 50.3905C30.5027 50.3988 30.6442 50.4113 30.794 50.4238C30.9438 50.4363 31.102 50.4238 31.2643 50.4321C31.5888 50.4321 31.9384 50.4321 32.2838 50.4321C32.6209 50.4072 32.9538 50.3864 33.27 50.3656C33.4323 50.3531 33.5697 50.3572 33.7319 50.3281C33.8901 50.3073 34.0399 50.2865 34.1772 50.2657C34.7265 50.1866 35.0927 50.1367 35.0927 50.1367L35.3923 52.6539Z" fill="white"/>
<path d="M27.9268 52.3454C27.9268 52.3454 27.569 52.2539 27.0321 52.1166C26.899 52.0833 26.7533 52.0458 26.5994 52.0042C26.4496 51.9709 26.2665 51.9002 26.0917 51.8461C25.738 51.7296 25.3593 51.6006 24.9806 51.4758C24.6227 51.326 24.2607 51.1763 23.9278 51.0348C23.7613 50.9599 23.5949 50.9058 23.445 50.8226C23.2952 50.7477 23.1537 50.677 23.0247 50.6104C22.5046 50.3483 22.1592 50.1735 22.1592 50.1735L23.083 48.4219C23.083 48.4219 23.4034 48.5675 23.882 48.7839C24.0027 48.8379 24.1317 48.8962 24.269 48.9586C24.4063 49.0252 24.5603 49.0709 24.7101 49.1292C25.018 49.2415 25.3468 49.3664 25.6755 49.487C26.0043 49.5827 26.3289 49.6742 26.6368 49.7616C26.7949 49.8032 26.9281 49.8532 27.0862 49.8864C27.2402 49.9197 27.39 49.9488 27.5232 49.978C28.0642 50.0945 28.4262 50.1694 28.4262 50.1694L27.9144 52.3412L27.9268 52.3454Z" fill="white"/>
<path d="M21.0645 49.5256C21.0645 49.5256 20.7607 49.3176 20.303 49.0055C20.1906 48.9265 20.0658 48.8432 19.9326 48.7517C19.8036 48.6643 19.658 48.5395 19.5123 48.4313C19.221 48.2025 18.9131 47.957 18.6051 47.7115C18.3222 47.4494 18.0392 47.1873 17.7729 46.9418C17.6439 46.817 17.5065 46.7088 17.3983 46.5798C17.286 46.4592 17.1778 46.3427 17.0779 46.2387C16.6826 45.8184 16.4204 45.5355 16.4204 45.5355L17.6647 44.4121C17.6647 44.4121 17.9185 44.6618 18.2972 45.0321C18.3929 45.1236 18.4928 45.2234 18.601 45.3316C18.705 45.444 18.8382 45.5355 18.9588 45.6478C19.2127 45.8642 19.479 46.0889 19.7495 46.3177C20.0283 46.5216 20.3071 46.7255 20.5693 46.9127C20.7025 47.0084 20.8148 47.1041 20.9521 47.1873C21.0853 47.2705 21.2143 47.3496 21.3308 47.4245C21.8011 47.7199 22.1173 47.9154 22.1173 47.9154L21.0603 49.5298L21.0645 49.5256Z" fill="white"/>
<path d="M15.6174 44.5518C15.6174 44.5518 15.4052 44.2481 15.0848 43.7945C15.0057 43.6822 14.9183 43.5574 14.8268 43.4284C14.7352 43.2953 14.6353 43.1704 14.5438 43.004C14.3607 42.6878 14.1609 42.3508 13.9654 42.0138L13.8197 41.76L13.7448 41.6351L13.7074 41.5727L13.6782 41.5186L13.6616 41.4895C13.5825 41.3272 13.5034 41.165 13.4285 41.0069C13.3536 40.8488 13.2787 40.699 13.2122 40.5575C13.1414 40.4202 13.0832 40.2663 13.0249 40.129C12.8043 39.5839 12.6587 39.2219 12.6587 39.2219L13.9404 38.7227C13.9404 38.7227 14.086 39.0389 14.3024 39.5132C14.3565 39.6338 14.4065 39.7587 14.4897 39.9001C14.5646 40.0416 14.6437 40.1872 14.7269 40.3412C14.8101 40.4951 14.8933 40.6532 14.9807 40.8113C15.0681 40.9486 15.1597 41.0901 15.2512 41.2316C15.4385 41.527 15.6257 41.8182 15.8047 42.0928C15.8838 42.2301 16.0003 42.3633 16.0918 42.4881C16.1875 42.6129 16.2791 42.7336 16.3665 42.8417C16.7035 43.2828 16.9283 43.574 16.9283 43.574L15.6174 44.5393V44.5518Z" fill="white"/>
<path d="M12.2717 38.042C12.2717 38.042 12.1843 37.6842 12.047 37.1433C12.0137 37.0101 11.9763 36.8645 11.9388 36.7106C11.893 36.5608 11.8764 36.3777 11.8431 36.1988C11.7848 35.841 11.7224 35.4541 11.66 35.0713C11.6267 34.6885 11.5976 34.3099 11.5684 33.952C11.556 33.7731 11.5352 33.6025 11.5352 33.4361C11.5352 33.2739 11.5352 33.1157 11.5352 32.9743C11.5352 32.4043 11.5352 32.0215 11.5352 32.0215L12.6088 32.0464C12.6088 32.0464 12.6213 32.4043 12.6421 32.941C12.6462 33.0741 12.6546 33.2198 12.6587 33.3737C12.6629 33.5277 12.692 33.6899 12.7087 33.8563C12.7503 34.1892 12.7919 34.5429 12.8377 34.8965C12.9084 35.2419 12.9792 35.583 13.0457 35.9076C13.0832 36.0698 13.0998 36.2196 13.1498 36.3736C13.1955 36.5275 13.2372 36.669 13.2746 36.8021C13.4327 37.3347 13.5368 37.6883 13.5368 37.6883L12.2551 38.0337L12.2717 38.042Z" fill="white"/>
<path d="M11.6436 30.7895C11.6436 30.7895 11.6977 30.4233 11.785 29.8741C11.8058 29.7368 11.8267 29.587 11.8516 29.4331C11.8724 29.2791 11.9224 29.1044 11.9598 28.9296C12.043 28.5801 12.1304 28.2057 12.2178 27.8354C12.3343 27.4734 12.4509 27.1156 12.5591 26.7786C12.6173 26.6121 12.6589 26.4457 12.7255 26.2959C12.7879 26.1461 12.8462 26.0047 12.9003 25.8715C13.1167 25.3473 13.2623 25.002 13.2623 25.002L13.9698 25.314C13.9698 25.314 13.8449 25.6552 13.6577 26.1628C13.6119 26.2876 13.5619 26.4249 13.5078 26.5747C13.4496 26.7203 13.4163 26.8784 13.3705 27.0407C13.279 27.3652 13.1833 27.7147 13.0876 28.0601C13.021 28.4096 12.9544 28.7591 12.892 29.0836C12.8628 29.25 12.8212 29.3998 12.8087 29.5579C12.7921 29.716 12.7754 29.8658 12.7588 30.0031C12.7005 30.5523 12.6589 30.9226 12.6589 30.9226L11.6436 30.7895Z" fill="white"/>
<path d="M13.8198 23.9084C13.8198 23.9084 14.0112 23.5921 14.2984 23.1178C14.3691 22.9972 14.4482 22.8682 14.5273 22.735C14.6063 22.5977 14.7187 22.4604 14.8186 22.3148C15.0266 22.0277 15.2472 21.7198 15.4719 21.4119C15.7174 21.1249 15.9588 20.8378 16.1876 20.5715C16.3042 20.4383 16.404 20.301 16.5247 20.1929C16.6371 20.0805 16.7453 19.9723 16.8451 19.8725C17.2446 19.4772 17.511 19.2109 17.511 19.2109L17.8355 19.5521C17.8355 19.5521 17.5859 19.8184 17.2155 20.222C17.124 20.3218 17.0241 20.43 16.9159 20.5465C16.8035 20.6547 16.712 20.7962 16.6038 20.9293C16.3957 21.1956 16.171 21.4827 15.9463 21.7698C15.7465 22.0693 15.551 22.3731 15.3637 22.6518C15.2721 22.7975 15.1764 22.9223 15.1015 23.0637C15.0266 23.201 14.9517 23.3342 14.8851 23.4548C14.6188 23.9416 14.444 24.2662 14.444 24.2662L13.8198 23.9084Z" fill="white"/>
<path d="M18.4263 18.4319C18.4263 18.4319 18.5012 18.3778 18.6302 18.278C18.6968 18.2281 18.7717 18.1698 18.8632 18.1032C18.9548 18.0367 19.0505 17.9576 19.167 17.8786C19.4 17.7205 19.6664 17.5249 19.9618 17.3418C20.1116 17.2503 20.2656 17.1546 20.4196 17.0547C20.5735 16.9549 20.74 16.8717 20.9023 16.776C21.0687 16.6886 21.2227 16.5929 21.3933 16.5097C21.5556 16.4306 21.7179 16.3516 21.876 16.2809C22.03 16.206 22.184 16.1352 22.3255 16.0645C22.467 15.9896 22.6126 15.9438 22.7416 15.8897C23.2618 15.6859 23.6113 15.5527 23.6113 15.5527L23.6696 15.7108C23.6696 15.7108 23.3325 15.8565 22.829 16.077C22.7042 16.1352 22.5668 16.1852 22.4253 16.2642C22.2839 16.3391 22.1382 16.4182 21.9842 16.4972C21.8303 16.5804 21.6721 16.6636 21.514 16.7469C21.3642 16.8301 21.2061 16.9341 21.0479 17.0256C20.894 17.1213 20.7317 17.2128 20.586 17.3169C20.4362 17.4209 20.2906 17.5166 20.1491 17.6164C19.8661 17.8078 19.6206 18.0117 19.4 18.1698C19.2918 18.253 19.1961 18.3362 19.1087 18.407C19.0213 18.4777 18.9464 18.5401 18.884 18.5942C18.7592 18.6982 18.6884 18.7565 18.6884 18.7565L18.4263 18.4278V18.4319Z" fill="white"/>
<path d="M53.9896 35.3106C53.9896 35.3106 53.8356 35.6476 53.6068 36.1511C53.5485 36.2759 53.4861 36.4132 53.4237 36.5588C53.3696 36.7003 53.2655 36.8709 53.1781 37.0373C52.995 37.3743 52.8036 37.7322 52.608 38.09C52.4 38.427 52.1836 38.7557 51.9838 39.0677C51.8798 39.2217 51.7924 39.3756 51.6925 39.5129C51.5927 39.6502 51.4969 39.775 51.4054 39.8957C51.0517 40.3659 50.8145 40.6821 50.8145 40.6821L48.7671 39.101C48.7671 39.101 48.9627 38.8139 49.254 38.3854C49.3289 38.2772 49.4079 38.1607 49.4912 38.04C49.5744 37.9194 49.6451 37.7779 49.7284 37.6406C49.8907 37.3619 50.0654 37.0623 50.2361 36.7627C50.3817 36.4631 50.5273 36.1636 50.6647 35.8848C50.7313 35.7392 50.802 35.6227 50.8603 35.4646C50.9185 35.319 50.9768 35.1775 51.0267 35.0485C51.2348 34.5326 51.3721 34.1914 51.3721 34.1914L53.9854 35.3065L53.9896 35.3106Z" fill="white"/>
<path d="M49.9743 41.6764C49.9743 41.6764 49.7163 41.9385 49.3293 42.338C49.2336 42.4378 49.1254 42.546 49.0172 42.6583C48.9132 42.7707 48.7592 42.8955 48.6219 43.0203C48.3389 43.27 48.0352 43.5362 47.7355 43.8067C47.4234 44.0438 47.1113 44.281 46.82 44.5057C46.6702 44.6139 46.5371 44.7304 46.3956 44.8177C46.2541 44.9093 46.1209 44.9966 46.0002 45.0757C45.5092 45.3961 45.1805 45.6083 45.1805 45.6083L43.9653 43.6777C43.9653 43.6777 44.2483 43.4738 44.6728 43.1701C44.7768 43.0952 44.8933 43.012 45.0182 42.9246C45.143 42.8414 45.2554 42.7332 45.3844 42.6292C45.634 42.4212 45.9045 42.1965 46.1709 41.976C46.4122 41.743 46.6536 41.51 46.8825 41.2895C46.999 41.173 47.103 41.0898 47.2112 40.9608C47.3152 40.8443 47.4193 40.7319 47.5108 40.6279C47.8812 40.216 48.1309 39.9414 48.1309 39.9414L49.9785 41.6764H49.9743Z" fill="white"/>
<path d="M44.0565 46.2371C44.0565 46.2371 43.7236 46.3952 43.2242 46.6365C43.0994 46.6948 42.962 46.7614 42.8206 46.8279C42.6832 46.8987 42.5001 46.9611 42.3295 47.0318C41.9841 47.1691 41.6096 47.3147 41.2392 47.4604C40.8689 47.5769 40.4985 47.6934 40.149 47.8015C39.9742 47.8515 39.8077 47.9139 39.6454 47.9513C39.4831 47.9888 39.3292 48.0262 39.1877 48.0595C38.6217 48.1926 38.2431 48.28 38.2431 48.28L37.8228 46.3453C37.8228 46.3453 38.1598 46.2496 38.6675 46.1081C38.7924 46.0748 38.9338 46.0332 39.0753 45.9958C39.221 45.9583 39.3708 45.8959 39.5248 45.8418C39.8327 45.7295 40.1656 45.613 40.4944 45.4923C40.8065 45.355 41.1186 45.2177 41.4099 45.0846C41.5597 45.0139 41.6928 44.9681 41.8343 44.889C41.9758 44.8142 42.109 44.7434 42.2296 44.6769C42.7207 44.4189 43.0453 44.2441 43.0453 44.2441L44.0523 46.2371H44.0565Z" fill="white"/>
<path d="M36.9866 48.4884C36.9866 48.4884 36.6204 48.5258 36.0669 48.5799C35.9296 48.5924 35.7798 48.6091 35.6217 48.6257C35.4677 48.6423 35.2763 48.6382 35.0932 48.6465C34.7228 48.6548 34.3275 48.6673 33.9363 48.6756C33.5493 48.659 33.1665 48.6382 32.8044 48.6215C32.6255 48.6091 32.4507 48.6132 32.2843 48.5882C32.122 48.5674 31.9638 48.5508 31.8224 48.5342C31.2481 48.4634 30.8652 48.4177 30.8652 48.4177L31.0941 46.7534C31.0941 46.7534 31.4478 46.7825 31.9763 46.8241C32.1095 46.8366 32.251 46.8449 32.4008 46.8574C32.5506 46.874 32.7129 46.8616 32.8793 46.8657C33.2122 46.8657 33.5618 46.8657 33.9155 46.8699C34.2609 46.8449 34.6021 46.8241 34.9267 46.7992C35.089 46.7867 35.2388 46.7867 35.397 46.7617C35.5551 46.7409 35.7007 46.7159 35.8422 46.6993C36.3915 46.6202 36.7577 46.5703 36.7577 46.5703L36.9866 48.4884Z" fill="white"/>
<path d="M29.6168 48.1759C29.6168 48.1759 29.2589 48.0802 28.7221 47.9387C28.589 47.9054 28.4433 47.8638 28.2893 47.8222C28.1354 47.7764 27.9772 47.7473 27.8025 47.6807C27.4571 47.5559 27.0909 47.4269 26.7205 47.2938L26.4459 47.1939L26.3085 47.144L26.2419 47.119L26.1837 47.0982L26.1546 47.0858C25.9881 47.0109 25.8258 46.936 25.6677 46.8652C25.5095 46.7945 25.3556 46.7279 25.2099 46.6614C25.0684 46.6031 24.9228 46.5199 24.7938 46.4533C24.2736 46.1787 23.9282 45.9957 23.9282 45.9957L24.5899 44.7891C24.5899 44.7891 24.902 44.9388 25.3764 45.1635C25.4971 45.2176 25.6177 45.2842 25.7675 45.3383C25.9174 45.3965 26.0713 45.4589 26.2336 45.5255C26.3959 45.5879 26.5624 45.6545 26.7288 45.7211C26.887 45.771 27.0451 45.8209 27.2074 45.8708C27.5403 45.9749 27.8732 46.0789 28.1853 46.1746C28.3351 46.2287 28.5099 46.2578 28.6597 46.2952C28.8137 46.3285 28.9593 46.3618 29.0966 46.3909C29.6376 46.5116 29.9997 46.5906 29.9997 46.5906L29.6127 48.1717L29.6168 48.1759Z" fill="white"/>
<path d="M22.8671 45.3391C22.8671 45.3391 22.5675 45.1227 22.1181 44.794C22.0057 44.7108 21.885 44.6234 21.756 44.5319C21.627 44.4487 21.4939 44.3155 21.3566 44.2032C21.0819 43.966 20.7864 43.7122 20.491 43.4584C20.2205 43.188 19.9542 42.9134 19.7045 42.6596C19.5796 42.5306 19.4548 42.4141 19.3508 42.2851C19.2467 42.1603 19.1469 42.0396 19.0553 41.9314C18.6891 41.4946 18.4478 41.1992 18.4478 41.1992L19.2883 40.5293C19.2883 40.5293 19.5297 40.7956 19.8917 41.195C19.9833 41.2949 20.079 41.403 20.183 41.5154C20.2829 41.6319 20.4119 41.7359 20.5326 41.8482C20.7781 42.0771 21.0403 42.3184 21.2983 42.5639C21.5729 42.7802 21.8476 43.0007 22.1056 43.2046C22.2388 43.3045 22.347 43.4085 22.4884 43.4959C22.6216 43.5832 22.7464 43.6665 22.8588 43.7455C23.3207 44.0534 23.6287 44.2573 23.6287 44.2573L22.8713 45.3474L22.8671 45.3391Z" fill="white"/>
<path d="M17.7233 40.1887C17.7233 40.1887 17.5319 39.8725 17.2448 39.3982C17.174 39.2775 17.095 39.1527 17.0117 39.0154C16.9244 38.8864 16.8536 38.7158 16.7704 38.5577C16.6081 38.2373 16.4375 37.892 16.2627 37.5508C16.1212 37.1971 15.9797 36.8476 15.8466 36.519C15.7841 36.3525 15.7092 36.1986 15.6635 36.0405C15.6135 35.8865 15.5678 35.7367 15.5261 35.6036C15.3555 35.0627 15.2432 34.7007 15.2432 34.7007L15.9839 34.4844C15.9839 34.4844 16.1046 34.8256 16.2918 35.3332C16.3376 35.458 16.3875 35.5994 16.4416 35.7451C16.4916 35.8949 16.5706 36.0363 16.6372 36.1944C16.7787 36.5023 16.9285 36.831 17.0742 37.1597C17.2489 37.4717 17.4196 37.7796 17.5819 38.0709C17.6651 38.2165 17.7317 38.358 17.8232 38.4911C17.9106 38.6243 17.9938 38.7491 18.0729 38.8614C18.3808 39.3233 18.5847 39.6311 18.5847 39.6311L17.7192 40.1804L17.7233 40.1887Z" fill="white"/>
<path d="M14.9687 33.5192C14.9687 33.5192 14.9104 33.153 14.8272 32.608C14.8064 32.4707 14.7814 32.3209 14.7564 32.1669C14.7315 32.0088 14.7273 31.8341 14.7107 31.6593C14.6857 31.3057 14.6566 30.9271 14.6274 30.5484C14.6274 30.174 14.6316 29.7953 14.6358 29.4458C14.6399 29.2711 14.6274 29.1005 14.6524 28.9382C14.6649 28.776 14.6815 28.6262 14.694 28.4847C14.744 27.923 14.7814 27.5527 14.7814 27.5527L15.2475 27.6027C15.2475 27.6027 15.2308 27.9688 15.2017 28.5139C15.1934 28.6512 15.1892 28.7968 15.1809 28.9549C15.1643 29.113 15.1851 29.2753 15.1892 29.4458C15.2017 29.787 15.2142 30.149 15.2267 30.511C15.2683 30.8688 15.3099 31.2266 15.3474 31.5636C15.3682 31.7301 15.3765 31.8923 15.4098 32.0463C15.4389 32.2044 15.4722 32.35 15.4972 32.4831C15.6054 33.0282 15.6803 33.3902 15.6803 33.3902L14.9687 33.515V33.5192Z" fill="white"/>
<path d="M14.9771 26.366C14.9771 26.366 14.9979 26.2745 15.0311 26.1164C15.0478 26.0373 15.0686 25.9416 15.0977 25.8334C15.1227 25.7211 15.1477 25.6004 15.1851 25.4631C15.2642 25.1927 15.3391 24.8723 15.4473 24.5395C15.5014 24.373 15.5596 24.2024 15.6137 24.0277C15.6678 23.8529 15.7427 23.6824 15.8052 23.5034C15.8759 23.3287 15.93 23.1581 16.0091 22.9834C16.084 22.8169 16.1589 22.6547 16.2296 22.4966C16.3004 22.3385 16.3711 22.1887 16.4377 22.043C16.496 21.8974 16.5792 21.7684 16.6458 21.6436C16.9162 21.1527 17.0952 20.8281 17.0952 20.8281L17.2408 20.9113C17.2408 20.9113 17.0785 21.24 16.833 21.731C16.7748 21.8558 16.6999 21.9806 16.6458 22.1304C16.5875 22.2802 16.5251 22.4341 16.4585 22.5923C16.3919 22.7545 16.3253 22.921 16.2588 23.0874C16.1963 23.2455 16.1422 23.4286 16.084 23.5991C16.0299 23.7739 15.9633 23.9445 15.9175 24.1192C15.8676 24.294 15.8218 24.4646 15.776 24.6268C15.6845 24.9555 15.6221 25.2676 15.5596 25.5339C15.5264 25.667 15.5097 25.7918 15.4889 25.9042C15.4681 26.0165 15.4514 26.1122 15.4348 26.1913C15.4057 26.3494 15.389 26.4409 15.389 26.4409L14.9771 26.3577V26.366Z" fill="white"/>
<path d="M53.0699 16.4397C53.0699 16.4397 53.1698 16.7975 53.3196 17.3301C53.3571 17.4632 53.3987 17.6089 53.4403 17.7628C53.4861 17.9084 53.5193 18.104 53.561 18.2871C53.6359 18.6615 53.7191 19.0609 53.8023 19.4562C53.8606 19.8515 53.9064 20.2384 53.9563 20.6046C53.9771 20.7876 54.0062 20.9665 54.0187 21.133C54.027 21.3036 54.0395 21.4617 54.0478 21.6073C54.0811 22.1981 54.1019 22.5892 54.1019 22.5892L51.5177 22.6932C51.5177 22.6932 51.4844 22.3479 51.4303 21.832C51.4178 21.703 51.4054 21.5615 51.3887 21.4159C51.3762 21.2703 51.3388 21.1163 51.3138 20.9541C51.2597 20.6337 51.2015 20.2925 51.139 19.9555C51.06 19.631 50.9767 19.3106 50.9018 19.0069C50.8602 18.8529 50.8394 18.7198 50.7812 18.5617C50.7312 18.4119 50.6854 18.2662 50.6397 18.1373C50.4691 17.6089 50.3525 17.2594 50.3525 17.2594L53.0699 16.4355V16.4397Z" fill="white"/>
<path d="M54.0857 23.8956C54.0857 23.8956 54.0565 24.2618 54.0149 24.8151C54.0025 24.9524 53.9941 25.1022 53.9816 25.2603C53.9733 25.4101 53.9359 25.6057 53.9109 25.7887C53.8568 26.1632 53.7944 26.5626 53.7361 26.9621C53.6487 27.3448 53.5655 27.7276 53.4823 28.0854C53.4407 28.2643 53.4074 28.4391 53.3574 28.5972C53.3075 28.7595 53.2617 28.9093 53.2201 29.0507C53.0495 29.6124 52.9371 29.9869 52.9371 29.9869L50.7607 29.2879C50.7607 29.2879 50.8481 28.9509 50.9771 28.4433C51.0104 28.3184 51.0437 28.1811 51.0812 28.0355C51.1228 27.8899 51.1394 27.7318 51.1727 27.5737C51.231 27.2533 51.2934 26.9121 51.3558 26.5668C51.3891 26.2339 51.4266 25.8969 51.4599 25.5849C51.4723 25.4226 51.5015 25.2895 51.5015 25.123C51.5056 24.9649 51.514 24.8151 51.5181 24.6737C51.5348 24.1203 51.5514 23.75 51.5514 23.75L54.0815 23.8915L54.0857 23.8956Z" fill="white"/>
<path d="M52.4834 31.1929C52.4834 31.1929 52.3294 31.5299 52.1005 32.0333C52.0423 32.1581 51.9798 32.2955 51.9174 32.4411C51.855 32.5825 51.7551 32.749 51.6719 32.9112C51.493 33.2399 51.3057 33.5894 51.1143 33.9389C50.9062 34.2676 50.694 34.5922 50.4984 34.9C50.3985 35.0498 50.3111 35.2038 50.2071 35.3369C50.1072 35.4701 50.0115 35.5949 49.9241 35.7114C49.5746 36.1774 49.3415 36.4894 49.3415 36.4894L47.7769 35.2745C47.7769 35.2745 47.9766 34.9833 48.2721 34.5505C48.347 34.4424 48.426 34.3217 48.5134 34.201C48.6008 34.0804 48.6716 33.9348 48.7589 33.7933C48.9254 33.5104 49.1002 33.2066 49.2791 32.9029C49.4289 32.5992 49.5787 32.2913 49.7202 32.0042C49.791 31.8544 49.8617 31.7338 49.92 31.5798C49.9782 31.43 50.0365 31.2927 50.0864 31.1637C50.2945 30.6478 50.4318 30.3066 50.4318 30.3066L52.4834 31.1845V31.1929Z" fill="white"/>
<path d="M48.5131 37.4596C48.5131 37.4596 48.2551 37.7217 47.8681 38.1211C47.7724 38.221 47.6642 38.3291 47.556 38.4415C47.4478 38.5538 47.3022 38.6745 47.1649 38.7993C46.886 39.0448 46.5948 39.3069 46.2951 39.569C45.9872 39.802 45.6793 40.035 45.3921 40.2555C45.2465 40.3637 45.1133 40.4761 44.9718 40.5634C44.8345 40.655 44.7013 40.7382 44.5806 40.8172C44.0979 41.1335 43.7733 41.3415 43.7733 41.3415L42.8828 39.9185C42.8828 39.9185 43.1699 39.7147 43.6027 39.4026C43.7109 39.3277 43.8274 39.2445 43.9523 39.153C44.0813 39.0697 44.1936 38.9574 44.3268 38.8534C44.5806 38.6412 44.8511 38.4165 45.1258 38.1918C45.3755 37.9547 45.621 37.7134 45.854 37.4887C45.9705 37.3722 46.0829 37.2807 46.1911 37.16C46.2993 37.0393 46.3992 36.9312 46.4907 36.8271C46.8611 36.4152 47.1108 36.1406 47.1108 36.1406L48.5215 37.4637L48.5131 37.4596Z" fill="white"/>
<path d="M42.6707 41.9567C42.6707 41.9567 42.3378 42.1149 41.8343 42.3479C41.7094 42.4061 41.5721 42.4685 41.4265 42.5392C41.2808 42.6058 41.1393 42.6849 40.9604 42.7431C40.615 42.8679 40.2488 43.0052 39.8826 43.1425L39.6079 43.2424L39.4706 43.2923L39.404 43.3173L39.3458 43.3381L39.3125 43.3464C39.1377 43.3963 38.9629 43.4463 38.7965 43.492C38.63 43.5378 38.4677 43.5836 38.3179 43.6293C38.1681 43.6751 38.01 43.7042 37.8643 43.7375C37.2901 43.8623 36.9072 43.9414 36.9072 43.9414L36.6367 42.5933C36.6367 42.5933 36.9738 42.506 37.4773 42.3728C37.6063 42.3395 37.7395 42.3104 37.8935 42.2563C38.0433 42.2064 38.2056 42.1523 38.3678 42.0982C38.5343 42.0441 38.7008 41.9859 38.8755 41.9318C39.0295 41.8694 39.1835 41.8028 39.3374 41.7404C39.6579 41.6073 39.9825 41.4741 40.2821 41.3451C40.4319 41.291 40.5817 41.1995 40.7232 41.1288C40.8647 41.0539 40.9978 40.9873 41.1185 40.9207C41.6096 40.6628 41.9383 40.4922 41.9383 40.4922L42.6624 41.9526L42.6707 41.9567Z" fill="white"/>
<path d="M35.6756 44.1204C35.6756 44.1204 35.3053 44.1454 34.7518 44.1828C34.6145 44.1911 34.4647 44.2036 34.3065 44.2119C34.1526 44.2286 33.9653 44.2119 33.7864 44.2119C33.4202 44.2078 33.0332 44.2036 32.6462 44.1953C32.2633 44.162 31.8846 44.1246 31.5267 44.0913C31.3478 44.0705 31.1772 44.0663 31.0149 44.033C30.8526 44.0039 30.7028 43.9789 30.5613 43.9498C29.9995 43.8499 29.625 43.7792 29.625 43.7792L29.8372 42.7266C29.8372 42.7266 30.1909 42.7765 30.7278 42.8472C30.8609 42.8639 31.0066 42.8847 31.1564 42.9055C31.3104 42.9263 31.4726 42.9263 31.6391 42.9388C31.972 42.9554 32.3299 42.9762 32.6878 42.9928C33.0373 42.9845 33.391 42.972 33.7156 42.9637C33.8821 42.9554 34.0319 42.9637 34.1942 42.9429C34.3523 42.9263 34.5021 42.9096 34.6395 42.893C35.1929 42.8306 35.5591 42.789 35.5591 42.789L35.6798 44.1121L35.6756 44.1204Z" fill="white"/>
<path d="M28.4223 43.48C28.4223 43.48 28.0727 43.3635 27.5484 43.1846C27.4152 43.1388 27.2737 43.093 27.1239 43.0389C26.9741 42.9932 26.8118 42.91 26.6454 42.8434C26.3166 42.7019 25.9629 42.548 25.6092 42.3982C25.2763 42.2193 24.9392 42.0445 24.6271 41.8781C24.4731 41.7907 24.315 41.72 24.1818 41.6285C24.0445 41.5411 23.9155 41.4579 23.7948 41.3788C23.3163 41.0751 23 40.8712 23 40.8712L23.4286 40.2305C23.4286 40.2305 23.7407 40.4135 24.211 40.684C24.3275 40.7506 24.4565 40.8254 24.5896 40.9045C24.7228 40.9877 24.8768 41.046 25.0266 41.1209C25.3304 41.2665 25.6591 41.4204 25.9837 41.5785C26.3166 41.7034 26.6495 41.8323 26.9616 41.9488C27.1198 42.0029 27.2612 42.0737 27.4152 42.1153C27.5692 42.161 27.7107 42.2026 27.8438 42.2401C28.3765 42.394 28.7302 42.498 28.7302 42.498L28.4223 43.4758V43.48Z" fill="white"/>
<path d="M22.0264 40.1437C22.0264 40.1437 21.7476 39.9024 21.3314 39.5363C21.2274 39.4448 21.115 39.3491 20.9944 39.2409C20.8737 39.1369 20.7572 39.0037 20.6323 38.8789C20.3826 38.6251 20.1205 38.3505 19.8541 38.08C19.6128 37.7888 19.3756 37.5017 19.1509 37.2313C19.0427 37.094 18.922 36.9691 18.8346 36.8318C18.7431 36.6987 18.6557 36.5739 18.5766 36.4574C18.2562 35.9955 18.0439 35.6876 18.0439 35.6876L18.4351 35.4297C18.4351 35.4297 18.6557 35.7209 18.9886 36.1536C19.0718 36.2618 19.1592 36.3825 19.2549 36.5073C19.3423 36.6363 19.4671 36.7486 19.5753 36.8776C19.8042 37.1314 20.0456 37.4019 20.2911 37.6723C20.5533 37.9178 20.8154 38.1674 21.0609 38.4004C21.1858 38.5169 21.294 38.6334 21.4188 38.7291C21.5437 38.829 21.6602 38.9205 21.7684 39.0079C22.2012 39.3532 22.4883 39.5862 22.4883 39.5862L22.0264 40.1396V40.1437Z" fill="white"/>
<path d="M17.4321 34.6597C17.4321 34.6597 17.3905 34.5765 17.3156 34.435C17.2781 34.3643 17.2324 34.2769 17.1824 34.1771C17.1325 34.0772 17.0701 33.9649 17.0118 33.8359C16.8995 33.5779 16.7496 33.2825 16.6206 32.958C16.5541 32.7957 16.4875 32.6293 16.4209 32.4546C16.3502 32.2881 16.2961 32.1092 16.2336 31.9303C16.1754 31.7514 16.1088 31.585 16.0547 31.3977C16.0048 31.223 15.959 31.0482 15.9132 30.8818C15.8674 30.7154 15.8217 30.5531 15.78 30.3992C15.7301 30.2494 15.7135 30.0954 15.6802 29.9581C15.572 29.4089 15.4971 29.0428 15.4971 29.0428L15.6635 29.0137C15.6635 29.0137 15.7509 29.3715 15.8799 29.9041C15.9132 30.0372 15.9382 30.1828 15.9923 30.3326C16.0422 30.4824 16.0921 30.6447 16.1462 30.8069C16.2003 30.9734 16.2544 31.1439 16.3127 31.3145C16.3668 31.4768 16.4417 31.6515 16.5083 31.8221C16.579 31.9927 16.6373 32.1675 16.7164 32.3297C16.7913 32.4962 16.862 32.6543 16.9327 32.8124C17.0742 33.1244 17.2282 33.4032 17.3489 33.6487C17.4113 33.7693 17.4779 33.8775 17.532 33.9774C17.5861 34.0731 17.636 34.1604 17.6776 34.2312C17.7567 34.3726 17.8025 34.4517 17.8025 34.4517L17.4321 34.6514V34.6597Z" fill="white"/>
<path d="M40.2324 2.57057C40.2324 2.57057 40.5361 2.7786 40.9939 3.09065C41.1104 3.16971 41.2311 3.25292 41.3643 3.34446C41.4933 3.42351 41.6431 3.55665 41.7929 3.66899C42.0925 3.90615 42.4129 4.15995 42.7292 4.40959C43.0246 4.67171 43.3118 4.94216 43.5864 5.1918C43.7196 5.32078 43.8569 5.43312 43.9734 5.55794C44.09 5.6786 44.1982 5.7951 44.3022 5.90328C44.7058 6.33183 44.9763 6.61892 44.9763 6.61892L43.0621 8.35809C43.0621 8.35809 42.8166 8.11676 42.4421 7.75478C42.3505 7.66325 42.2506 7.56755 42.1424 7.46354C42.0384 7.35952 41.9094 7.26382 41.7887 7.15981C41.539 6.95177 41.2769 6.7271 41.0147 6.50658C40.7442 6.31103 40.4779 6.11547 40.224 5.9324C40.095 5.84087 39.991 5.74933 39.8454 5.66612C39.7122 5.58291 39.5832 5.50385 39.4667 5.42896C38.9964 5.13771 38.6802 4.94216 38.6802 4.94216L40.2324 2.56641V2.57057Z" fill="white"/>
<path d="M45.8044 7.62916C45.8044 7.62916 46.0208 7.92873 46.3413 8.37808C46.4203 8.49042 46.5119 8.61108 46.6034 8.74423C46.695 8.86489 46.7907 9.03963 46.8906 9.19358C47.0903 9.51395 47.2984 9.85929 47.5106 10.2046C47.6895 10.55 47.8726 10.8995 48.0391 11.2282C48.1223 11.3904 48.2097 11.5444 48.2721 11.7025C48.3387 11.8564 48.4011 12.002 48.4594 12.1352C48.6883 12.6719 48.8422 13.0339 48.8422 13.0339L46.7283 13.8952C46.7283 13.8952 46.5785 13.5789 46.3496 13.1088C46.2913 12.9923 46.2331 12.8633 46.1665 12.726C46.1041 12.5887 46.0167 12.4597 45.9376 12.3141C45.7753 12.0312 45.6047 11.7274 45.4299 11.4279C45.2427 11.1491 45.0554 10.8703 44.8765 10.6082C44.7849 10.4751 44.7183 10.3544 44.6143 10.2254C44.5186 10.1006 44.4229 9.98411 44.3396 9.87177C43.9984 9.4349 43.7695 9.14365 43.7695 9.14365L45.8003 7.625L45.8044 7.62916Z" fill="white"/>
<path d="M49.2669 14.25C49.2669 14.25 49.3667 14.6078 49.5166 15.1404C49.554 15.2735 49.5956 15.4192 49.6372 15.5731C49.683 15.7229 49.7121 15.9143 49.7538 16.0932C49.8287 16.4593 49.9077 16.8504 49.9868 17.2415C50.0367 17.6285 50.0867 18.0113 50.1324 18.3732C50.1532 18.5522 50.1865 18.7269 50.1907 18.8933C50.199 19.0598 50.2073 19.2179 50.2157 19.3635C50.249 19.946 50.2698 20.3329 50.2698 20.3329L48.289 20.412C48.289 20.412 48.2557 20.0625 48.2016 19.5382C48.1891 19.4093 48.1766 19.2636 48.16 19.1138C48.1475 18.9641 48.11 18.8101 48.085 18.6437C48.0309 18.3192 47.9685 17.9738 47.9103 17.6285C47.827 17.2956 47.748 16.9669 47.6689 16.659C47.6273 16.5009 47.6065 16.3595 47.5524 16.2055C47.5025 16.0557 47.4567 15.9101 47.4151 15.7811C47.2444 15.2527 47.1279 14.9032 47.1279 14.9032L49.2669 14.2583V14.25Z" fill="white"/>
<path d="M50.2572 21.5965C50.2572 21.5965 50.2281 21.9668 50.1865 22.516C50.1782 22.6533 50.1657 22.8031 50.1532 22.9612C50.1449 23.1193 50.1074 23.3023 50.0824 23.4854C50.0283 23.8516 49.9701 24.2427 49.9118 24.6296C49.8286 25.0082 49.7412 25.3827 49.6621 25.7363C49.6205 25.9111 49.5914 26.0858 49.5373 26.2439C49.4874 26.4021 49.4416 26.5518 49.4 26.6891C49.2335 27.2425 49.117 27.6087 49.117 27.6087L47.519 27.0927C47.519 27.0927 47.6064 26.7516 47.7396 26.2356C47.7729 26.1066 47.8103 25.9693 47.8478 25.8237C47.8936 25.6781 47.906 25.5158 47.9393 25.3536C47.9976 25.029 48.06 24.6795 48.1266 24.3342C48.1641 23.993 48.2015 23.6477 48.2348 23.3273C48.2514 23.165 48.2764 23.0194 48.2806 22.8571C48.2847 22.699 48.2931 22.5493 48.2972 22.412C48.3139 21.8586 48.3305 21.4883 48.3305 21.4883L50.2572 21.5965Z" fill="white"/>
<path d="M48.6717 28.7995C48.6717 28.7995 48.5178 29.1323 48.2806 29.6358C48.2223 29.7606 48.1599 29.8979 48.0933 30.0435C48.0226 30.1891 47.9643 30.3389 47.8686 30.497C47.6855 30.8132 47.4941 31.1544 47.3026 31.4956L47.157 31.7494L47.0863 31.8742L47.0488 31.9366L47.0155 31.9865L46.9989 32.0157C46.8948 32.1655 46.795 32.3152 46.6992 32.4567C46.6035 32.6023 46.5078 32.7396 46.4204 32.8686C46.3372 32.9976 46.2332 33.1266 46.1458 33.2431C45.7837 33.7049 45.5424 34.017 45.5424 34.017L44.4688 33.1557C44.4688 33.1557 44.6727 32.8728 44.9723 32.4484C45.0472 32.3402 45.1304 32.232 45.2136 32.0947C45.2969 31.9574 45.3843 31.816 45.4758 31.6703C45.5674 31.5247 45.6589 31.3708 45.7546 31.2168C45.8295 31.0712 45.9086 30.9214 45.9835 30.7758C46.1416 30.4679 46.3039 30.1558 46.4537 29.8646C46.5328 29.7273 46.591 29.5609 46.6535 29.4152C46.7159 29.2696 46.77 29.1282 46.8241 29.0033C47.0363 28.4916 47.1778 28.1504 47.1778 28.1504L48.6676 28.8036L48.6717 28.7995Z" fill="white"/>
<path d="M44.7017 34.9537C44.7017 34.9537 44.4353 35.2117 44.0358 35.5945C43.936 35.6902 43.8278 35.7942 43.7113 35.9065C43.6031 36.0189 43.4533 36.127 43.3159 36.2435C43.033 36.4724 42.7333 36.7179 42.4296 36.9675C42.1175 37.188 41.8012 37.4002 41.5057 37.6041C41.3559 37.7039 41.2186 37.808 41.0771 37.887C40.9356 37.9702 40.7983 38.0451 40.6776 38.1159C40.1824 38.3988 39.8495 38.5902 39.8495 38.5902L39.3335 37.6457C39.3335 37.6457 39.6373 37.4543 40.0909 37.1672C40.2032 37.0965 40.3281 37.0174 40.4571 36.9384C40.5902 36.8593 40.7109 36.7511 40.8482 36.6513C41.1146 36.4516 41.4017 36.2352 41.6847 36.0189C41.9468 35.7859 42.209 35.5529 42.4545 35.3365C42.5752 35.2242 42.7 35.1326 42.8082 35.012C42.9164 34.8955 43.0205 34.7873 43.1162 34.6874C43.499 34.2839 43.7529 34.0176 43.7529 34.0176L44.6933 34.9537H44.7017Z" fill="white"/>
<path d="M38.7382 39.1264C38.7382 39.1264 38.3929 39.2595 37.8768 39.4634C37.7478 39.5133 37.6064 39.5674 37.4607 39.6257C37.3151 39.6881 37.1403 39.7297 36.9697 39.7838C36.6243 39.8878 36.2581 39.996 35.8919 40.1083C35.5215 40.1873 35.1511 40.2664 34.8058 40.3413C34.631 40.3746 34.4645 40.4203 34.3022 40.437C34.1399 40.4578 33.9901 40.4786 33.8486 40.4952C33.2869 40.566 32.9123 40.6159 32.9123 40.6159L32.8291 39.8462C32.8291 39.8462 33.187 39.7838 33.7196 39.6922C33.8528 39.6673 33.9984 39.6423 34.1524 39.6173C34.3064 39.5965 34.4604 39.5424 34.6268 39.5008C34.9556 39.4176 35.3051 39.3261 35.6505 39.2387C35.9876 39.1222 36.3247 39.0057 36.6368 38.8975C36.7949 38.8393 36.9447 38.8018 37.0903 38.7311C37.236 38.6645 37.3733 38.6063 37.5023 38.5522C38.01 38.3275 38.3471 38.1777 38.3471 38.1777L38.7382 39.1222V39.1264Z" fill="white"/>
<path d="M31.6892 40.6829C31.6892 40.6829 31.3188 40.6746 30.7653 40.6663C30.628 40.6663 30.4782 40.6621 30.3201 40.6579C30.1619 40.6579 29.9872 40.6288 29.8124 40.6163C29.4587 40.5789 29.08 40.5414 28.7055 40.504C28.3351 40.4374 27.9647 40.3667 27.6193 40.3043C27.4487 40.2668 27.2781 40.2502 27.1241 40.2003C26.966 40.1587 26.8204 40.117 26.6872 40.0796C26.1462 39.934 25.7842 39.8341 25.7842 39.8341L25.9173 39.3848C25.9173 39.3848 26.2711 39.4638 26.8079 39.5845C26.941 39.6136 27.0867 39.6469 27.2365 39.6843C27.3863 39.7259 27.5528 39.7343 27.7234 39.7634C28.0605 39.8092 28.4225 39.8591 28.7804 39.9132C29.1382 39.934 29.5003 39.9548 29.8374 39.9756C30.008 39.9839 30.1661 40.0005 30.3242 39.9964C30.4824 39.9964 30.6322 39.9881 30.7737 39.9839C31.3271 39.9714 31.6975 39.9631 31.6975 39.9631V40.6829H31.6892Z" fill="white"/>
<path d="M24.6438 39.4307C24.6438 39.4307 24.5606 39.3933 24.4108 39.3309C24.3359 39.2976 24.2443 39.2601 24.1403 39.2185C24.0363 39.1728 23.9197 39.1312 23.7907 39.0687C23.5369 38.9439 23.2373 38.8149 22.9252 38.6485C22.7712 38.5653 22.6131 38.4821 22.4508 38.3947C22.2885 38.3115 22.1303 38.2075 21.9681 38.1159C21.8099 38.0161 21.6476 37.9329 21.4895 37.8247C21.3397 37.7207 21.1899 37.6208 21.0484 37.521C20.9069 37.4253 20.7654 37.3296 20.6364 37.238C20.5032 37.1548 20.3909 37.0508 20.2785 36.9634C19.8416 36.6139 19.5503 36.3809 19.5503 36.3809L19.6585 36.252C19.6585 36.252 19.9539 36.4683 20.3951 36.797C20.5074 36.8761 20.6198 36.9718 20.7571 37.0508C20.8903 37.134 21.0359 37.2256 21.1816 37.3129C21.3272 37.4045 21.4812 37.5002 21.6351 37.5959C21.7808 37.6832 21.9514 37.7706 22.1095 37.858C22.2718 37.9454 22.43 38.0369 22.5923 38.1118C22.7545 38.1908 22.9168 38.2699 23.0708 38.3406C23.3788 38.4904 23.6784 38.6027 23.9281 38.7109C24.0529 38.765 24.1736 38.8066 24.2818 38.8441C24.3858 38.8815 24.4815 38.919 24.5564 38.9439C24.7062 38.998 24.7936 39.0313 24.7936 39.0313L24.6396 39.4224L24.6438 39.4307Z" fill="white"/>
<path d="M21.481 0.195807C21.481 0.195807 21.8472 0.158361 22.4006 0.104272C22.5379 0.0876289 22.6878 0.0751468 22.8459 0.0585041C22.9957 0.0377006 23.1954 0.0418613 23.3827 0.0293793C23.7655 0.0168972 24.1692 0.00857582 24.577 -0.00390625C24.9723 0.00857582 25.3635 0.0293793 25.7339 0.046022C25.917 0.0585041 26.0959 0.0585041 26.2665 0.0793075C26.433 0.0959503 26.5953 0.116754 26.7409 0.133396C27.3277 0.204128 27.7189 0.249896 27.7189 0.249896L27.3735 2.81288C27.3735 2.81288 27.0281 2.78792 26.5121 2.74631C26.3831 2.73799 26.2416 2.72551 26.0959 2.71302C25.9461 2.70054 25.7921 2.71302 25.6298 2.7047C25.3053 2.7047 24.9599 2.7047 24.6186 2.7047C24.2857 2.72967 23.957 2.75047 23.6449 2.77127C23.4867 2.78376 23.3494 2.78376 23.1871 2.81288C23.029 2.83368 22.8792 2.85865 22.7419 2.87529C22.1926 2.95434 21.8264 3.00427 21.8264 3.00427L21.4851 0.187485L21.481 0.195807Z" fill="white"/>
<path d="M29.0005 0.492188C29.0005 0.492188 29.3584 0.583723 29.8952 0.721025C30.0284 0.754311 30.174 0.791757 30.328 0.833364C30.4778 0.866649 30.6609 0.937381 30.8399 0.99147C31.1977 1.11213 31.5806 1.24111 31.9634 1.36593C32.3255 1.51572 32.6875 1.6655 33.0246 1.81113C33.191 1.88602 33.3617 1.94427 33.5073 2.02332C33.6571 2.09821 33.7986 2.16894 33.9318 2.23552C34.4561 2.5018 34.8015 2.67655 34.8015 2.67655L33.7362 4.69448C33.7362 4.69448 33.4199 4.54886 32.9414 4.33666C32.8207 4.28257 32.6917 4.22432 32.5585 4.16191C32.4212 4.0995 32.2714 4.05374 32.1174 3.99133C31.8136 3.87899 31.4849 3.75833 31.1603 3.63767C30.8399 3.54613 30.5153 3.45044 30.2115 3.36306C30.0534 3.32146 29.9285 3.27153 29.7662 3.2424C29.6123 3.20912 29.4625 3.17583 29.3293 3.15087C28.7883 3.03437 28.4263 2.95948 28.4263 2.95948L29.0047 0.492188H29.0005Z" fill="white"/>
<path d="M35.9124 3.33789C35.9124 3.33789 36.2162 3.54592 36.6739 3.86214C36.7863 3.94119 36.9111 4.0244 37.0443 4.11594C37.1733 4.19915 37.319 4.32813 37.4646 4.44047C37.7559 4.67347 38.068 4.91895 38.3801 5.16859C38.6672 5.43072 38.9544 5.697 39.2207 5.94248C39.3497 6.0673 39.487 6.17964 39.5994 6.30446C39.7117 6.42512 39.8199 6.54162 39.9198 6.64564C40.3193 7.07003 40.5815 7.35296 40.5815 7.35296L39.1167 8.68438C39.1167 8.68438 38.867 8.43889 38.4883 8.07275C38.3967 7.98122 38.2927 7.88136 38.1845 7.77318C38.0805 7.66501 37.9515 7.56931 37.8266 7.46113C37.577 7.24894 37.3065 7.02426 37.0401 6.79542C36.7655 6.59571 36.4908 6.396 36.2328 6.2046C36.0997 6.10891 35.9915 6.01737 35.85 5.93416C35.7168 5.85095 35.5878 5.77189 35.4713 5.697C35.0011 5.40159 34.689 5.20604 34.689 5.20604L35.9124 3.33789Z" fill="white"/>
<path d="M41.393 8.33398C41.393 8.33398 41.6094 8.63355 41.9298 9.08707C42.0089 9.19941 42.0963 9.32007 42.192 9.45321C42.2835 9.57803 42.3792 9.74446 42.4749 9.8984C42.6664 10.2146 42.8744 10.5516 43.0825 10.8886C43.2614 11.234 43.4362 11.5752 43.6027 11.8955C43.6817 12.0578 43.7733 12.2076 43.8316 12.3615C43.8981 12.5155 43.9564 12.6569 44.0147 12.7901C44.2394 13.3226 44.3933 13.6763 44.3933 13.6763L42.837 14.3087C42.837 14.3087 42.683 13.9884 42.4541 13.5099C42.3959 13.3892 42.3335 13.2602 42.271 13.1229C42.2128 12.9815 42.1212 12.8483 42.0422 12.7027C41.8799 12.4156 41.7051 12.1077 41.5262 11.7998C41.3347 11.5128 41.1433 11.2257 40.9602 10.9594C40.8645 10.8262 40.7938 10.6973 40.6939 10.5724C40.594 10.4476 40.5025 10.327 40.4192 10.2188C40.078 9.7819 39.8491 9.49066 39.8491 9.49066L41.393 8.33398Z" fill="white"/>
<path d="M44.8098 14.8672C44.8098 14.8672 44.9055 15.225 45.0512 15.7617C45.0886 15.8949 45.1261 16.0405 45.1677 16.1944C45.2051 16.3526 45.2592 16.5023 45.2884 16.6896C45.3549 17.0515 45.4257 17.4343 45.4964 17.8171L45.5464 18.1042L45.5713 18.2498L45.5838 18.3206L45.5921 18.3788V18.4121C45.6129 18.5952 45.6337 18.7699 45.6504 18.9447C45.667 19.1194 45.6837 19.2817 45.7003 19.4439C45.7211 19.5979 45.7211 19.7602 45.7295 19.9099C45.7503 20.4966 45.7669 20.8877 45.7669 20.8877L44.3895 20.9168C44.3895 20.9168 44.3604 20.5715 44.3229 20.0472C44.3104 19.9183 44.3063 19.781 44.2771 19.6187C44.2563 19.4606 44.2314 19.2942 44.2064 19.1236C44.1814 18.953 44.1565 18.7741 44.1273 18.5952C44.0899 18.4329 44.0566 18.2706 44.0191 18.1084C43.9442 17.7672 43.8652 17.426 43.7944 17.1098C43.7694 16.9517 43.7029 16.7894 43.6571 16.6396C43.6113 16.4899 43.5655 16.3442 43.5239 16.2111C43.3575 15.6827 43.2451 15.329 43.2451 15.329L44.8098 14.8713V14.8672Z" fill="white"/>
<path d="M45.7292 22.1355C45.7292 22.1355 45.6917 22.5017 45.6335 23.055C45.6168 23.1923 45.6043 23.3421 45.5877 23.5002C45.5794 23.6542 45.5336 23.8331 45.5003 24.012C45.4337 24.3698 45.3588 24.7526 45.2881 25.1354C45.1882 25.5057 45.0842 25.8718 44.9884 26.2172C44.9385 26.3877 44.9011 26.5583 44.8428 26.7123C44.7887 26.8662 44.7346 27.0118 44.6847 27.145L44.3559 28.0395L43.353 27.6484C43.353 27.6484 43.4612 27.3073 43.6277 26.7955C43.6693 26.6665 43.7151 26.5292 43.7608 26.3836C43.8108 26.238 43.8357 26.0757 43.8774 25.9134C43.9523 25.5889 44.0313 25.2394 44.1146 24.8899C44.1645 24.5446 44.2186 24.1951 44.2644 23.8705C44.2852 23.7041 44.3226 23.5585 44.3268 23.3962C44.3351 23.2381 44.3476 23.0883 44.3559 22.951C44.3892 22.3976 44.4142 22.0273 44.4142 22.0273L45.7375 22.1397L45.7292 22.1355Z" fill="white"/>
<path d="M43.8401 29.1618C43.8401 29.1618 43.6653 29.4864 43.399 29.9732C43.3324 30.0938 43.2616 30.227 43.1826 30.3643C43.1118 30.5057 43.0036 30.6513 42.9079 30.8011C42.7123 31.1007 42.5001 31.4211 42.2879 31.7414C42.0548 32.041 41.8218 32.3406 41.6054 32.6194C41.4931 32.7567 41.3973 32.8981 41.285 33.0146C41.1726 33.1353 41.0686 33.2476 40.9729 33.3516C40.59 33.7677 40.332 34.0465 40.332 34.0465L39.7744 33.5097C39.7744 33.5097 40.0075 33.2351 40.357 32.8191C40.4444 32.715 40.5401 32.6027 40.64 32.4862C40.744 32.3697 40.8272 32.2282 40.9313 32.0951C41.1269 31.8205 41.3391 31.5251 41.5472 31.2338C41.7303 30.9301 41.9134 30.6222 42.084 30.3393C42.1672 30.1937 42.2588 30.0689 42.3253 29.9191C42.3961 29.7776 42.4627 29.6403 42.5251 29.5155C42.7706 29.0204 42.9329 28.6875 42.9329 28.6875L43.8401 29.1618Z" fill="white"/>
<path d="M39.4375 34.8834C39.4375 34.8834 39.1503 35.1164 38.7175 35.4618C38.6093 35.5492 38.4928 35.6449 38.3721 35.7447C38.2515 35.8446 38.0975 35.9361 37.956 36.0401C37.6605 36.2398 37.3484 36.452 37.0363 36.6642C36.7076 36.8515 36.383 37.0345 36.0751 37.2093C35.9211 37.2925 35.7796 37.3882 35.6298 37.4506C35.4842 37.5172 35.3468 37.5837 35.2178 37.642C34.706 37.8791 34.3689 38.0331 34.3689 38.0331L34.1816 37.6004C34.1816 37.6004 34.5062 37.434 34.9931 37.1843C35.1138 37.1219 35.247 37.0553 35.3843 36.9846C35.5258 36.918 35.6589 36.8182 35.8087 36.7308C36.0959 36.5519 36.408 36.3563 36.7159 36.1649C37.0031 35.9486 37.2943 35.7364 37.5648 35.5325C37.698 35.4285 37.8312 35.3411 37.9518 35.2371C38.0725 35.1331 38.1849 35.0332 38.2889 34.9417C38.7051 34.5756 38.9839 34.3301 38.9839 34.3301L39.4499 34.8834H39.4375Z" fill="white"/>
<path d="M33.2369 38.4539C33.2369 38.4539 33.1495 38.483 32.9955 38.5288C32.9165 38.5537 32.8249 38.5828 32.7167 38.6161C32.6085 38.6494 32.4878 38.691 32.3547 38.7243C32.08 38.7909 31.7638 38.8866 31.4225 38.9573C31.2519 38.9947 31.073 39.0322 30.894 39.0696C30.7151 39.1112 30.532 39.132 30.3447 39.1653C30.1575 39.1945 29.9827 39.2277 29.7913 39.2486C29.6082 39.2652 29.4334 39.2818 29.2586 39.2985C29.088 39.3151 28.9215 39.3318 28.7634 39.3484C28.6053 39.3692 28.4513 39.3651 28.314 39.3692C27.7564 39.3817 27.3818 39.39 27.3818 39.39V39.2236C27.3818 39.2236 27.748 39.2028 28.2973 39.1653C28.4347 39.1529 28.5803 39.1529 28.7384 39.1279C28.8966 39.1071 29.063 39.0821 29.2336 39.0572C29.4043 39.0322 29.5832 39.0072 29.7621 38.9823C29.9328 38.9573 30.1159 38.9115 30.2948 38.8782C30.4737 38.8408 30.6568 38.8117 30.8275 38.7618C31.0022 38.716 31.1728 38.6744 31.3393 38.6328C31.6722 38.5496 31.9718 38.4455 32.234 38.3665C32.363 38.329 32.4837 38.2791 32.5877 38.2417C32.6959 38.2042 32.7875 38.1709 32.8624 38.146C33.0163 38.0919 33.0996 38.0586 33.0996 38.0586L33.2327 38.458L33.2369 38.4539Z" fill="white"/>
<path d="M5.59277 10.4319C5.59277 10.4319 5.85078 10.1656 6.23779 9.77038C6.3335 9.67053 6.43753 9.56235 6.54989 9.45001C6.64976 9.33767 6.80789 9.21285 6.94106 9.08387C7.22819 8.83007 7.53197 8.55962 7.83575 8.28918C8.14786 8.0437 8.45996 7.80654 8.75542 7.58186C8.90523 7.47368 9.04255 7.35718 9.18404 7.26565C9.32552 7.17411 9.45869 7.08674 9.58353 7.00353C10.0787 6.67899 10.4075 6.4668 10.4075 6.4668L11.7891 8.65116C11.7891 8.65116 11.5102 8.85087 11.0858 9.1546C10.9817 9.22949 10.8652 9.31271 10.7446 9.39592C10.6239 9.4833 10.5074 9.58731 10.3825 9.69133C10.137 9.89937 9.8665 10.1199 9.6085 10.3404C9.3713 10.5692 9.12994 10.8022 8.90522 11.0186C8.79287 11.1309 8.68467 11.2183 8.58064 11.3431C8.4766 11.4638 8.37257 11.572 8.28102 11.676C7.91066 12.0879 7.66514 12.3625 7.66514 12.3625L5.59277 10.4236V10.4319Z" fill="white"/>
<path d="M11.5435 5.82661C11.5435 5.82661 11.8764 5.6685 12.3757 5.42718C12.5006 5.36893 12.6379 5.30236 12.7794 5.23163C12.9125 5.1609 13.104 5.09849 13.2746 5.02776C13.6283 4.89046 14.0028 4.74067 14.3774 4.59505C14.7519 4.47855 15.1264 4.36205 15.476 4.25387C15.6507 4.20394 15.8172 4.14153 15.9836 4.10409C16.1459 4.06664 16.3041 4.02919 16.4456 3.99591C17.0157 3.86277 17.3985 3.77539 17.3985 3.77539L17.8812 6.00552C17.8812 6.00552 17.5442 6.10122 17.0406 6.23852C16.9158 6.2718 16.7785 6.31341 16.6328 6.35086C16.4872 6.3883 16.3415 6.45071 16.1875 6.5048C15.8796 6.61714 15.555 6.73364 15.2263 6.85014C14.9183 6.98744 14.6104 7.12475 14.3233 7.24957C14.1776 7.3203 14.0486 7.3619 13.903 7.44512C13.7615 7.52001 13.6283 7.59074 13.5076 7.65731C13.0166 7.91944 12.692 8.09002 12.692 8.09002L11.5476 5.82661H11.5435Z" fill="white"/>
<path d="M18.6636 3.56223C18.6636 3.56223 19.0298 3.52479 19.5833 3.47486C19.7206 3.46237 19.8704 3.44573 20.0285 3.42909C20.1825 3.41245 20.3781 3.41245 20.5612 3.40413C20.9357 3.3958 21.3352 3.38332 21.7305 3.375C22.1175 3.39164 22.5087 3.41245 22.8707 3.42493C23.0538 3.43741 23.2286 3.43325 23.3951 3.45821C23.5615 3.47902 23.7155 3.49566 23.8611 3.5123C24.4396 3.58303 24.8224 3.6288 24.8224 3.6288L24.5561 5.59265C24.5561 5.59265 24.2065 5.56768 23.678 5.52608C23.5449 5.51359 23.4034 5.50527 23.2536 5.49279C23.1038 5.47615 22.9456 5.48863 22.7792 5.48447C22.4504 5.48447 22.1009 5.48447 21.7472 5.48447C21.4059 5.50527 21.0689 5.53024 20.7484 5.55104C20.5861 5.56352 20.4447 5.56352 20.2824 5.58849C20.1242 5.60929 19.9744 5.63425 19.8371 5.6509C19.2878 5.72579 18.9216 5.77988 18.9216 5.77988L18.6553 3.56223H18.6636Z" fill="white"/>
<path d="M26.079 3.86523C26.079 3.86523 26.4369 3.95677 26.9737 4.09407C27.1069 4.12736 27.2525 4.1648 27.4065 4.20641C27.5605 4.24386 27.7353 4.31043 27.91 4.36452C28.2596 4.48102 28.6341 4.60584 29.0086 4.73066C29.3665 4.88044 29.7202 5.03023 30.0573 5.16753C30.2238 5.23826 30.3902 5.29651 30.5359 5.37556C30.6857 5.45046 30.823 5.52119 30.952 5.58776C31.468 5.84988 31.8092 6.02463 31.8092 6.02463L31.0227 7.51C31.0227 7.51 30.7023 7.36437 30.2154 7.14386C30.0948 7.08977 29.9658 7.02736 29.8284 6.96495C29.6911 6.89422 29.5371 6.85261 29.3832 6.7902C29.0711 6.6737 28.7423 6.55304 28.4094 6.43238C28.0765 6.33668 27.7477 6.24099 27.4356 6.15361C27.2775 6.11201 27.1402 6.05792 26.9821 6.02879C26.8281 5.99551 26.6783 5.96638 26.5451 5.93726C26.0041 5.82076 25.6421 5.74587 25.6421 5.74587L26.0832 3.86523H26.079Z" fill="white"/>
<path d="M32.8955 6.67773C32.8955 6.67773 33.1992 6.88993 33.6528 7.20614C33.7652 7.2852 33.89 7.37257 34.019 7.46411C34.148 7.5598 34.2895 7.63885 34.4268 7.76367C34.7098 7.99667 35.0094 8.24631 35.3091 8.49596L35.5338 8.68319L35.6461 8.77472L35.7002 8.82049L35.746 8.8621L35.771 8.8829C35.9 9.01188 36.029 9.1367 36.1538 9.2532C36.2787 9.37386 36.3993 9.49036 36.5117 9.6027C36.624 9.70672 36.7322 9.83154 36.8321 9.93971C37.2274 10.3766 37.4896 10.6678 37.4896 10.6678L36.4534 11.5749C36.4534 11.5749 36.2121 11.3252 35.8459 10.9549C35.7543 10.8634 35.6628 10.7594 35.5379 10.6554C35.4214 10.5513 35.2924 10.439 35.1634 10.3225C35.0344 10.206 34.9012 10.0895 34.7639 9.96884C34.6349 9.86898 34.5017 9.76913 34.3686 9.66511C34.0898 9.45291 33.8151 9.24072 33.553 9.04517C33.4323 8.94115 33.2783 8.85794 33.1451 8.77056C33.012 8.68319 32.883 8.60413 32.7665 8.52924C32.3004 8.23383 31.9883 8.03412 31.9883 8.03412L32.8913 6.67773H32.8955Z" fill="white"/>
<path d="M38.2678 11.6514C38.2678 11.6514 38.4758 11.9593 38.7838 12.417C38.8628 12.5335 38.9461 12.6541 39.0335 12.7873C39.125 12.9121 39.2041 13.0785 39.2956 13.2325C39.4746 13.5528 39.666 13.8899 39.8532 14.2269C40.0155 14.5722 40.1737 14.9217 40.3193 15.2462C40.3901 15.4085 40.4733 15.5625 40.5274 15.7164C40.5815 15.8703 40.6356 16.016 40.6855 16.1491C40.8769 16.6858 41.0059 17.0437 41.0059 17.0437L39.9864 17.389C39.9864 17.389 39.8491 17.0561 39.6452 16.5569C39.5952 16.432 39.5411 16.2989 39.4829 16.1574C39.4246 16.016 39.3414 15.8745 39.2707 15.7247C39.1208 15.4252 38.9585 15.1089 38.7963 14.7886C38.6132 14.489 38.4301 14.1894 38.2553 13.9107C38.1637 13.7692 38.0971 13.6361 37.9973 13.5071C37.9057 13.3781 37.8142 13.2574 37.7309 13.1451C37.4022 12.6999 37.1816 12.4003 37.1816 12.4003L38.2678 11.6348V11.6514Z" fill="white"/>
<path d="M41.3388 18.25C41.3388 18.25 41.4096 18.612 41.5219 19.157C41.5511 19.2943 41.5802 19.44 41.6093 19.5939C41.6426 19.7478 41.6551 19.9268 41.6801 20.1057C41.7217 20.4635 41.7675 20.8463 41.8132 21.2249C41.8257 21.6035 41.8382 21.9821 41.8548 22.3358C41.8548 22.5147 41.8756 22.6853 41.8632 22.8476C41.8548 23.0098 41.8465 23.1638 41.8424 23.3052C41.8174 23.8711 41.7966 24.2497 41.7966 24.2497L41.0267 24.1998C41.0267 24.1998 41.0267 23.8378 41.0267 23.2969C41.0267 23.1596 41.0267 23.014 41.0267 22.86C41.0309 22.7061 41.0059 22.5438 40.9976 22.3732C40.9726 22.0362 40.9435 21.6784 40.9144 21.3164C40.8561 20.9669 40.802 20.6133 40.7479 20.2846C40.7188 20.1181 40.7063 19.9642 40.6647 19.8103C40.6272 19.6563 40.5898 19.5107 40.5565 19.3734C40.4233 18.8367 40.3359 18.4747 40.3359 18.4747L41.3347 18.2542L41.3388 18.25Z" fill="white"/>
<path d="M41.6467 25.4602C41.6467 25.4602 41.5759 25.8222 41.4677 26.3673C41.4428 26.5046 41.4136 26.6502 41.3803 26.8083C41.3512 26.9623 41.2929 27.1328 41.2513 27.3034C41.1556 27.6446 41.0516 28.0108 40.9476 28.3769C40.8144 28.7305 40.6854 29.08 40.5605 29.4087C40.494 29.571 40.4482 29.7374 40.3733 29.8789C40.3067 30.0245 40.2401 30.1618 40.1777 30.2908C39.9405 30.7984 39.7782 31.1396 39.7782 31.1396L39.3579 30.9316C39.3579 30.9316 39.4994 30.5945 39.7116 30.0911C39.7657 29.9663 39.824 29.829 39.8822 29.6833C39.9488 29.5419 39.9863 29.3796 40.0445 29.2174C40.1486 28.8928 40.2609 28.5475 40.3733 28.2021C40.4565 27.8526 40.5397 27.5031 40.6188 27.1745C40.6563 27.008 40.702 26.8582 40.7228 26.7001C40.7478 26.542 40.7686 26.3964 40.7894 26.2591C40.8726 25.7099 40.9267 25.3438 40.9267 25.3438L41.6383 25.4686L41.6467 25.4602Z" fill="white"/>
<path d="M39.1917 32.1798C39.1917 32.1798 39.1418 32.2588 39.0544 32.3919C39.0086 32.4585 38.9587 32.5417 38.8962 32.6374C38.8338 32.7331 38.7714 32.8413 38.6882 32.9536C38.5217 33.1825 38.3428 33.4571 38.1264 33.7317C38.0182 33.869 37.9058 34.0105 37.7935 34.1561C37.6853 34.3017 37.5563 34.439 37.4356 34.5805C37.3108 34.7219 37.1984 34.8634 37.0652 35.0007C36.9362 35.1297 36.8114 35.2587 36.6907 35.3835C36.57 35.5083 36.4535 35.6248 36.3412 35.7413C36.233 35.8578 36.1123 35.9535 36.0082 36.045C35.5879 36.4112 35.305 36.6608 35.305 36.6608L35.1968 36.5318C35.1968 36.5318 35.4631 36.278 35.8626 35.8994C35.9583 35.8037 36.0748 35.708 36.1747 35.5874C36.2787 35.4667 36.3911 35.346 36.5076 35.2171C36.6241 35.0881 36.7448 34.9549 36.8655 34.8176C36.9778 34.6886 37.0944 34.5347 37.2067 34.3932C37.3191 34.2476 37.4398 34.1103 37.5396 33.9605C37.6437 33.8149 37.7477 33.6693 37.8476 33.532C38.0473 33.2532 38.2096 32.9786 38.3636 32.7539C38.4385 32.6416 38.5009 32.5251 38.555 32.4294C38.6133 32.3337 38.6632 32.2463 38.7048 32.1756C38.788 32.0341 38.8338 31.9551 38.8338 31.9551L39.1917 32.1756V32.1798Z" fill="white"/>
</g>
<defs>
<clipPath id="clip0_3770_3632">
<rect width="54.0978" height="54.5425" fill="white"/>
</clipPath>
</defs>
</svg>
