<svg width="472" height="458" viewBox="0 0 472 458" fill="none" xmlns="http://www.w3.org/2000/svg">
<path d="M236.169 457.658C366.292 457.658 471.777 396.756 471.777 321.629C471.777 246.502 366.292 185.6 236.169 185.6C106.046 185.6 0.561035 246.502 0.561035 321.629C0.561035 396.756 106.046 457.658 236.169 457.658Z" fill="#F0F0F0"/>
<path d="M382.631 381.054C404.699 381.054 422.588 370.726 422.588 357.985C422.588 345.244 404.699 334.916 382.631 334.916C360.563 334.916 342.674 345.244 342.674 357.985C342.674 370.726 360.563 381.054 382.631 381.054Z" fill="#E0E0E0"/>
<path d="M106.663 388.164L25.147 341.101C22.604 339.632 22.604 337.252 25.147 335.783L158.506 258.789C161.05 257.321 165.173 257.321 167.717 258.789L249.232 305.852C251.776 307.321 251.776 309.701 249.232 311.17L115.874 388.164C113.33 389.633 109.206 389.633 106.663 388.164Z" fill="#E0E0E0"/>
<path d="M103.877 327.777C103.877 327.777 103.295 308.388 94.984 292.684C86.673 276.981 74.321 266.582 62.152 264.592C49.984 262.602 39.151 273.047 51.612 281.878C64.073 290.71 86.7 300.55 95.001 330.388L103.877 327.777Z" fill="#FF8311"/>
<g opacity="0.15">
<path d="M103.877 327.777C103.877 327.777 103.295 308.388 94.984 292.684C86.673 276.981 74.321 266.582 62.152 264.592C49.984 262.602 39.151 273.047 51.612 281.878C64.073 290.71 86.7 300.55 95.001 330.388L103.877 327.777Z" fill="black"/>
</g>
<path d="M100.702 322.49C100.747 322.486 100.791 322.477 100.835 322.463C101.182 322.356 101.375 321.987 101.266 321.641C90.995 288.729 67.495 273.384 56.503 269.869C56.159 269.756 55.789 269.95 55.678 270.294C55.568 270.64 55.757 271.009 56.103 271.119C66.87 274.562 89.902 289.636 100.013 322.032C100.107 322.335 100.399 322.519 100.702 322.49Z" fill="white"/>
<path d="M40.6971 311.518C41.5211 313.972 43.9781 315.441 46.2821 316.631C48.5731 317.81 51.0841 319.099 52.1681 321.449C54.3511 326.194 49.4781 332.12 51.8631 336.766C52.8651 338.714 54.9561 339.887 57.0671 340.474C58.8191 340.975 60.6351 341.143 62.4301 341.466C63.3011 341.53 64.1691 341.547 65.0201 341.508C67.5351 341.381 70.2381 341.518 72.3921 343.001C75.7801 345.347 76.4541 349.967 78.2991 353.654C80.5121 358.069 84.8611 361.232 89.6381 362.345C93.6451 363.262 99.8111 362.925 101.027 361.228C101.952 359.939 99.9621 355.603 100.06 354.019C100.311 349.957 100.176 345.871 99.6611 341.834C99.4101 339.868 99.2031 338.267 99.4031 336.29C99.6121 334.219 99.8081 332.146 99.9891 330.072C100.185 327.827 100.876 326.115 100.281 323.782C99.7141 321.556 98.5211 319.506 97.3291 317.564C96.1441 315.635 94.9431 313.717 93.7241 311.81C92.2861 309.56 90.8051 307.302 88.8581 305.475C85.4791 302.304 80.7471 300.625 76.1251 300.958C72.2951 301.234 68.4051 303.008 64.5341 302.464C60.7691 301.935 57.1591 300.575 53.2721 300.48C49.2071 300.381 44.9271 301.706 42.2981 304.956C40.8191 306.781 39.9511 309.291 40.6971 311.518Z" fill="#FF8311"/>
<path d="M98.6382 350.856C98.6542 350.855 98.6702 350.852 98.6852 350.85C99.0012 350.797 99.2162 350.496 99.1622 350.179C93.0792 314.043 56.4162 305.458 47.6672 305.269C47.3502 305.265 47.0802 305.517 47.0722 305.839C47.0652 306.161 47.3202 306.427 47.6422 306.434C56.2002 306.619 92.0632 315.018 98.0152 350.373C98.0652 350.674 98.3392 350.882 98.6382 350.856Z" fill="white"/>
<path d="M59.0492 329.114C59.1642 329.104 59.2762 329.06 59.3712 328.98C59.4732 328.895 69.8232 320.446 85.3172 324.235C85.6302 324.307 85.9462 324.12 86.0222 323.808C86.0992 323.495 85.9062 323.179 85.5952 323.103C69.5032 319.171 58.7312 327.997 58.6242 328.086C58.3772 328.293 58.3452 328.66 58.5512 328.907C58.6772 329.059 58.8652 329.13 59.0492 329.114Z" fill="white"/>
<path d="M241.392 10.392L114.006 83.928C111.456 85.41 109.379 89.004 109.379 91.956V379.233C109.379 382.184 111.456 383.386 114.006 381.905L241.392 308.369C243.942 306.887 246.019 303.293 246.019 300.342V13.064C246.019 10.113 243.942 8.91102 241.392 10.392ZM239.351 273.871C239.351 276.397 237.578 278.007 235.38 279.27L119.556 346.139C117.37 347.402 115.585 346.382 115.585 343.844V118.808C115.585 116.27 117.37 113.197 119.556 111.922L235.38 45.065C237.578 43.79 239.351 44.822 239.351 47.348V273.871Z" fill="#37474F"/>
<path d="M113.429 382.196C110.86 383.377 107.121 383.274 104.735 381.909L99.436 378.847C96.867 377.368 94.791 373.789 94.791 370.819V83.561C94.791 82.437 95.089 81.244 95.594 80.097C95.754 79.718 95.938 79.352 96.144 78.985C96.155 78.985 96.155 78.974 96.155 78.974L110.732 87.392H110.744C110.434 87.943 110.159 88.516 109.941 89.09C109.585 90.053 109.379 91.04 109.379 91.957V379.238C109.381 381.956 111.147 383.194 113.429 382.196Z" fill="#263238"/>
<path d="M178.8 319.892C182.839 317.56 186.113 319.451 186.113 324.114C186.113 328.778 182.839 334.449 178.8 336.781C174.761 339.113 171.487 337.223 171.487 332.559C171.487 327.895 174.761 322.224 178.8 319.892Z" fill="#27DEBF"/>
<path d="M177.699 53.356C179.414 52.366 180.804 53.169 180.804 55.149C180.804 57.129 179.414 59.538 177.699 60.528C175.984 61.518 174.593 60.715 174.593 58.735C174.593 56.754 175.984 54.346 177.699 53.356Z" fill="black"/>
<path d="M165.71 72.245L189.687 58.402C191.117 57.576 192.277 58.163 192.277 59.712C192.277 61.262 191.117 63.187 189.687 64.013L165.709 77.856C164.279 78.682 163.119 78.095 163.119 76.546C163.12 74.997 164.28 73.071 165.71 72.245Z" fill="black"/>
<path d="M239.351 273.871C239.351 276.397 237.578 278.007 235.38 279.27L119.556 346.139C117.37 347.402 115.585 346.382 115.585 343.844V118.808C115.585 116.27 117.37 113.197 119.556 111.922L235.38 45.065C237.578 43.79 239.351 44.822 239.351 47.348V273.871Z" fill="#FF8311"/>
<path d="M245.974 12.329C245.641 9.92001 243.714 9.04901 241.398 10.391L114.003 83.929C112.73 84.663 111.571 85.936 110.734 87.393L96.157 78.975C97.006 77.518 98.152 76.268 99.437 75.534L226.809 1.98501C229.355 0.506013 233.507 0.506013 236.076 1.98501L241.398 5.03601C243.737 6.39901 245.675 9.53001 245.974 12.329Z" fill="#455A64"/>
<path d="M255.484 54.756C254.766 54.339 253.771 54.398 252.67 55.037L136.846 121.893C134.66 123.168 132.875 126.241 132.875 128.779V353.814C132.875 355.023 133.28 355.887 133.94 356.325C134.666 356.806 137.608 358.406 138.287 358.837C139.011 359.297 140.033 359.253 141.162 358.601L256.986 291.732C259.184 290.469 260.957 288.859 260.957 286.333V59.812C260.957 58.55 260.514 57.66 259.797 57.246C259.077 56.83 256.2 55.172 255.484 54.756Z" fill="#E0E0E0"/>
<path d="M139.39 358.644C138.326 358.644 137.69 357.77 137.69 356.307V131.271C137.69 128.91 139.36 126.014 141.413 124.817L257.235 57.962C257.777 57.648 258.305 57.482 258.764 57.482C259.824 57.482 260.456 58.353 260.456 59.812V286.335C260.456 288.291 259.309 289.822 256.735 291.3L140.91 358.169C140.374 358.479 139.848 358.644 139.39 358.644Z" fill="#FAFAFA"/>
<path d="M258.764 57.982C259.84 57.982 259.956 59.262 259.956 59.812V286.334C259.956 288.089 258.886 289.487 256.485 290.867L140.661 357.736C140.2 358.002 139.76 358.143 139.39 358.143C138.307 358.143 138.19 356.859 138.19 356.306V131.271C138.19 129.105 139.782 126.347 141.661 125.251L257.487 58.393C257.951 58.124 258.393 57.982 258.764 57.982ZM258.764 56.982C258.229 56.982 257.625 57.158 256.985 57.529L141.161 124.385C138.975 125.66 137.19 128.733 137.19 131.271V356.306C137.19 358.106 138.088 359.143 139.39 359.143C139.924 359.143 140.526 358.969 141.161 358.602L256.985 291.733C259.183 290.47 260.956 288.86 260.956 286.334V59.812C260.956 58.022 260.065 56.982 258.764 56.982Z" fill="#E0E0E0"/>
<path d="M201.993 128.92C218.695 119.277 232.235 127.094 232.235 146.38C232.235 165.666 218.695 189.117 201.993 198.76C185.291 208.403 171.751 200.586 171.751 181.3C171.751 162.014 185.291 138.562 201.993 128.92Z" fill="#FF8311"/>
<path d="M204.494 141.407L208.762 150.473L218.305 146.812C219.62 146.308 220.145 148.159 219.193 149.945L212.288 162.906L213.918 174.637C214.143 176.253 212.768 178.378 211.592 178.233L203.057 177.178L194.522 188.089C193.346 189.592 191.972 189.054 192.196 187.179L193.826 173.566L186.921 168.578C185.97 167.891 186.495 165.433 187.809 164.42L197.352 157.062L201.62 143.069C202.207 141.139 203.906 140.158 204.494 141.407Z" fill="#FAFAFA"/>
<path d="M160.523 250.145C160.523 254.278 163.616 255.843 167.431 253.64C181.44 245.552 218.225 224.314 232.235 216.225C236.05 214.022 239.143 208.886 239.143 204.753C239.143 200.62 236.05 199.056 232.235 201.259L167.43 238.674C163.615 240.876 160.523 246.012 160.523 250.145Z" fill="#FF8311"/>
<path opacity="0.6" d="M160.523 250.145C160.523 254.278 163.616 255.843 167.431 253.64C181.44 245.552 218.225 224.314 232.235 216.225C236.05 214.022 239.143 208.886 239.143 204.753C239.143 200.62 236.05 199.056 232.235 201.259L167.43 238.674C163.615 240.876 160.523 246.012 160.523 250.145Z" fill="white"/>
<path d="M167.146 243.826L232.52 206.082C233.792 205.348 234.823 205.869 234.822 207.247C234.822 208.625 233.791 210.337 232.519 211.071L167.147 248.816C165.875 249.55 164.844 249.029 164.844 247.651C164.844 246.272 165.874 244.56 167.146 243.826Z" fill="#455A64"/>
<path d="M160.523 275.084C160.523 279.217 163.616 280.782 167.431 278.579C181.44 270.491 218.225 249.253 232.235 241.164C236.05 238.961 239.143 233.825 239.143 229.692C239.143 225.559 236.05 223.995 232.235 226.197L167.43 263.612C163.615 265.815 160.523 270.951 160.523 275.084Z" fill="#FF8311"/>
<path opacity="0.6" d="M160.523 275.084C160.523 279.217 163.616 280.782 167.431 278.579C181.44 270.491 218.225 249.253 232.235 241.164C236.05 238.961 239.143 233.825 239.143 229.692C239.143 225.559 236.05 223.995 232.235 226.197L167.43 263.612C163.615 265.815 160.523 270.951 160.523 275.084Z" fill="white"/>
<path d="M171.324 266.357C172.517 265.668 173.484 266.227 173.484 267.604C173.484 268.982 172.517 270.657 171.324 271.346C170.131 272.035 169.164 271.476 169.164 270.099C169.164 268.721 170.131 267.046 171.324 266.357Z" fill="#455A64"/>
<path d="M178.139 262.422C179.332 261.733 180.299 262.291 180.299 263.669C180.299 265.047 179.332 266.722 178.139 267.411C176.946 268.1 175.979 267.542 175.979 266.164C175.979 264.786 176.946 263.111 178.139 262.422Z" fill="#455A64"/>
<path d="M184.954 258.487C186.147 257.798 187.114 258.357 187.114 259.734C187.114 261.111 186.147 262.787 184.954 263.476C183.761 264.165 182.794 263.606 182.794 262.229C182.795 260.851 183.762 259.176 184.954 258.487Z" fill="#455A64"/>
<path d="M191.77 254.552C192.963 253.863 193.93 254.422 193.93 255.799C193.93 257.176 192.963 258.852 191.77 259.541C190.577 260.23 189.61 259.671 189.61 258.294C189.61 256.917 190.577 255.241 191.77 254.552Z" fill="#455A64"/>
<path d="M198.585 250.618C199.778 249.929 200.745 250.487 200.745 251.865C200.745 253.243 199.778 254.918 198.585 255.607C197.392 256.296 196.425 255.737 196.425 254.36C196.425 252.982 197.392 251.306 198.585 250.618Z" fill="#455A64"/>
<path d="M205.4 246.683C206.593 245.994 207.56 246.552 207.56 247.93C207.56 249.308 206.593 250.983 205.4 251.672C204.207 252.361 203.24 251.803 203.24 250.425C203.241 249.047 204.208 247.371 205.4 246.683Z" fill="#455A64"/>
<path d="M212.216 242.748C213.409 242.059 214.376 242.618 214.376 243.995C214.376 245.372 213.409 247.048 212.216 247.737C211.023 248.426 210.056 247.867 210.056 246.49C210.056 245.112 211.023 243.437 212.216 242.748Z" fill="#455A64"/>
<path d="M219.031 238.813C220.224 238.124 221.191 238.683 221.191 240.06C221.191 241.437 220.224 243.113 219.031 243.802C217.838 244.491 216.871 243.932 216.871 242.555C216.871 241.178 217.838 239.502 219.031 238.813Z" fill="#455A64"/>
<path d="M225.846 234.878C227.039 234.189 228.006 234.747 228.006 236.125C228.006 237.502 227.039 239.178 225.846 239.867C224.653 240.556 223.686 239.998 223.686 238.62C223.687 237.242 224.654 235.567 225.846 234.878Z" fill="#455A64"/>
<path d="M232.662 230.943C233.855 230.254 234.822 230.812 234.822 232.19C234.822 233.568 233.855 235.243 232.662 235.932C231.469 236.621 230.502 236.063 230.502 234.685C230.502 233.307 231.469 231.632 232.662 230.943Z" fill="#455A64"/>
<path d="M189.318 283.402L218.99 266.271C221.534 264.803 223.595 265.993 223.595 268.93V273.26C223.595 276.197 221.533 279.768 218.99 281.237L189.318 298.368C186.775 299.837 184.713 298.646 184.713 295.709V291.379C184.712 288.442 186.774 284.871 189.318 283.402Z" fill="#27DEBF"/>
<path d="M189.033 290.908V291.193C189.033 292.662 190.064 293.257 191.336 292.523L216.972 277.728C218.244 276.994 219.275 275.208 219.275 273.74V273.448C219.275 271.979 218.244 271.384 216.972 272.119L191.335 286.92C190.064 287.653 189.033 289.439 189.033 290.908Z" fill="#FAFAFA"/>
<path opacity="0.7" d="M182.718 193.39L303.392 123.73C304.664 122.996 305.695 123.591 305.695 125.059V221.051C305.695 222.52 304.664 224.305 303.392 225.039L182.718 294.704C181.446 295.438 180.415 294.843 180.415 293.375V197.379C180.415 195.91 181.446 194.124 182.718 193.39Z" fill="#37474F"/>
<path opacity="0.7" d="M181.092 195.111L175.222 191.71C174.803 192.433 174.544 193.248 174.544 193.984V289.979C174.544 290.702 174.799 291.213 175.204 291.457C175.629 291.712 180.655 294.585 181.048 294.841C180.655 294.586 180.421 294.075 180.421 293.373V197.378C180.42 196.644 180.677 195.832 181.092 195.111Z" fill="#263238"/>
<path opacity="0.5" d="M304.927 123.517C304.108 123.017 299.54 120.399 299.168 120.176C298.753 119.931 298.168 119.953 297.52 120.325L176.852 189.995C176.215 190.361 175.64 190.99 175.222 191.71L181.092 195.111C181.508 194.388 182.083 193.757 182.717 193.389L303.395 123.73C303.98 123.389 304.523 123.336 304.927 123.517Z" fill="#455A64"/>
<path d="M198.981 194.332C199.051 194.29 199.111 194.296 199.163 194.344C199.214 194.393 199.239 194.472 199.239 194.58V196.142C199.239 196.25 199.214 196.358 199.163 196.465C199.111 196.574 199.051 196.648 198.981 196.689L197.296 197.661V205.221C197.296 205.329 197.27 205.438 197.219 205.544C197.168 205.653 197.107 205.728 197.036 205.768L195.782 206.492C195.712 206.532 195.652 206.528 195.6 206.478C195.549 206.43 195.524 206.351 195.524 206.243V198.682L193.839 199.655C193.768 199.695 193.708 199.691 193.657 199.641C193.605 199.593 193.58 199.514 193.58 199.406V197.844C193.58 197.736 193.605 197.628 193.657 197.519C193.708 197.412 193.768 197.337 193.839 197.297L198.981 194.332Z" fill="#FAFAFA"/>
<path d="M205.375 198.599C205.445 198.557 205.506 198.562 205.557 198.61C205.608 198.66 205.634 198.738 205.634 198.846V200.408C205.634 200.516 205.608 200.625 205.557 200.732C205.506 200.84 205.445 200.915 205.375 200.956L200.837 203.576C200.767 203.615 200.707 203.611 200.655 203.561C200.604 203.513 200.579 203.434 200.579 203.326V193.806C200.579 193.698 200.604 193.59 200.655 193.481C200.707 193.374 200.767 193.299 200.837 193.259L205.298 190.684C205.369 190.644 205.429 190.648 205.48 190.696C205.531 190.745 205.557 190.824 205.557 190.932V192.494C205.557 192.602 205.531 192.711 205.48 192.818C205.429 192.926 205.369 193.001 205.298 193.041L202.35 194.742V196.333L205.087 194.753C205.158 194.713 205.218 194.717 205.269 194.767C205.321 194.817 205.346 194.894 205.346 195.002V196.566C205.346 196.674 205.321 196.78 205.269 196.889C205.218 196.998 205.158 197.072 205.087 197.112L202.35 198.693V200.342L205.375 198.599Z" fill="#FAFAFA"/>
<path d="M210.064 187.932C210.485 187.689 210.862 187.54 211.194 187.485C211.525 187.432 211.808 187.475 212.041 187.615C212.274 187.756 212.451 188.004 212.577 188.36C212.701 188.715 212.763 189.179 212.763 189.748C212.763 190.484 212.664 191.153 212.466 191.755C212.269 192.355 211.987 192.888 211.625 193.353L212.811 196.176C212.831 196.224 212.84 196.272 212.84 196.321C212.84 196.408 212.819 196.497 212.778 196.585C212.736 196.672 212.687 196.733 212.63 196.766L211.329 197.518C211.201 197.592 211.11 197.599 211.056 197.543C211.002 197.486 210.958 197.423 210.927 197.352L209.864 194.812L208.983 195.321V198.474C208.983 198.582 208.957 198.691 208.906 198.798C208.855 198.906 208.794 198.981 208.724 199.022L207.469 199.745C207.399 199.787 207.339 199.781 207.287 199.733C207.236 199.684 207.211 199.605 207.211 199.497V189.977C207.211 189.869 207.236 189.761 207.287 189.652C207.339 189.544 207.399 189.47 207.469 189.43L210.064 187.932ZM208.983 193.022L210.064 192.398C210.332 192.243 210.554 192.036 210.73 191.778C210.906 191.52 210.993 191.184 210.993 190.771C210.993 190.359 210.906 190.123 210.73 190.068C210.555 190.013 210.332 190.062 210.064 190.217L208.983 190.841V193.022Z" fill="#FAFAFA"/>
<path d="M217.144 191.56C217.089 191.508 217.045 191.451 217.014 191.392L216.115 189.479V194.357C216.115 194.465 216.089 194.574 216.037 194.681C215.987 194.789 215.926 194.864 215.855 194.905L214.601 195.628C214.531 195.67 214.471 195.664 214.419 195.616C214.368 195.567 214.343 195.488 214.343 195.38V185.86C214.343 185.752 214.368 185.644 214.419 185.535C214.471 185.428 214.531 185.353 214.601 185.313L215.712 184.672C215.84 184.598 215.935 184.597 215.999 184.668C216.063 184.739 216.104 184.794 216.124 184.832L217.675 188.019L219.226 183.042C219.245 182.982 219.287 182.879 219.351 182.734C219.414 182.59 219.51 182.48 219.638 182.406L220.748 181.765C220.818 181.725 220.879 181.729 220.93 181.778C220.981 181.827 221.007 181.906 221.007 182.014V191.534C221.007 191.642 220.981 191.75 220.93 191.858C220.879 191.966 220.818 192.041 220.748 192.081L219.494 192.805C219.423 192.845 219.363 192.841 219.312 192.791C219.26 192.743 219.235 192.664 219.235 192.556V187.678L218.334 190.63C218.303 190.726 218.259 190.832 218.205 190.947C218.151 191.062 218.076 191.146 217.981 191.201L217.368 191.555C217.271 191.611 217.198 191.612 217.144 191.56Z" fill="#FAFAFA"/>
<path d="M225.314 178.981C225.722 178.745 226.097 178.619 226.438 178.604C226.78 178.588 227.075 178.652 227.323 178.793C227.572 178.935 227.768 179.136 227.908 179.398C228.048 179.662 228.122 179.948 228.128 180.259C228.128 180.347 228.107 180.436 228.066 180.523C228.024 180.611 227.979 180.669 227.928 180.699L226.673 181.423C226.584 181.475 226.512 181.496 226.457 181.488C226.404 181.481 226.348 181.454 226.29 181.408C226.271 181.39 226.241 181.359 226.2 181.313C226.158 181.268 226.099 181.232 226.022 181.202C225.946 181.172 225.851 181.163 225.735 181.175C225.619 181.187 225.48 181.241 225.314 181.337C225.192 181.407 225.075 181.487 224.964 181.576C224.852 181.664 224.753 181.761 224.667 181.865C224.582 181.968 224.511 182.086 224.456 182.215C224.402 182.345 224.375 182.483 224.375 182.63C224.375 182.777 224.405 182.883 224.466 182.945C224.526 183.009 224.629 183.041 224.771 183.042C224.915 183.042 225.105 183.013 225.341 182.956C225.577 182.899 225.871 182.823 226.222 182.728C226.573 182.634 226.879 182.594 227.141 182.61C227.403 182.626 227.621 182.709 227.796 182.858C227.971 183.007 228.102 183.226 228.189 183.515C228.275 183.805 228.318 184.18 228.318 184.642C228.318 185.143 228.245 185.632 228.098 186.11C227.952 186.587 227.745 187.043 227.481 187.476C227.216 187.908 226.904 188.303 226.543 188.658C226.182 189.014 225.788 189.315 225.361 189.562C224.926 189.813 224.531 189.953 224.174 189.982C223.817 190.012 223.509 189.957 223.25 189.816C222.992 189.675 222.79 189.465 222.643 189.186C222.495 188.908 222.419 188.583 222.412 188.214C222.412 188.126 222.433 188.037 222.474 187.95C222.516 187.861 222.561 187.804 222.613 187.774L223.867 187.05C223.956 186.999 224.026 186.975 224.078 186.979C224.129 186.985 224.18 187.006 224.231 187.045C224.257 187.069 224.294 187.112 224.346 187.171C224.397 187.23 224.465 187.281 224.552 187.324C224.638 187.368 224.746 187.386 224.878 187.379C225.008 187.373 225.169 187.315 225.361 187.204C225.699 187.009 225.981 186.788 226.207 186.544C226.434 186.301 226.548 186.031 226.548 185.737C226.548 185.59 226.505 185.491 226.422 185.441C226.34 185.39 226.215 185.371 226.049 185.383C225.884 185.395 225.671 185.437 225.412 185.508C225.153 185.579 224.849 185.656 224.498 185.742C223.84 185.905 223.361 185.821 223.057 185.49C222.755 185.159 222.602 184.571 222.602 183.726C222.602 183.303 222.664 182.864 222.789 182.409C222.914 181.954 223.093 181.512 223.33 181.08C223.566 180.649 223.851 180.251 224.186 179.886C224.523 179.523 224.898 179.221 225.314 178.981Z" fill="#FAFAFA"/>
<path d="M232.042 179.09C232.061 178.529 232.139 177.965 232.277 177.4C232.413 176.835 232.608 176.299 232.861 175.796C233.112 175.292 233.42 174.829 233.78 174.41C234.139 173.991 234.556 173.645 235.028 173.372C235.493 173.103 235.909 172.97 236.272 172.97C236.635 172.971 236.943 173.079 237.196 173.291C237.447 173.504 237.642 173.814 237.78 174.221C237.917 174.628 237.995 175.101 238.015 175.64C238.027 176.056 238.034 176.494 238.034 176.956C238.034 177.418 238.028 177.854 238.015 178.264C237.995 178.826 237.917 179.388 237.78 179.954C237.642 180.52 237.448 181.057 237.196 181.565C236.943 182.075 236.635 182.537 236.272 182.953C235.909 183.37 235.493 183.712 235.028 183.981C234.555 184.254 234.139 184.391 233.78 184.392C233.42 184.394 233.112 184.286 232.861 184.068C232.609 183.85 232.413 183.538 232.277 183.131C232.139 182.723 232.061 182.251 232.042 181.712C232.029 181.316 232.022 180.888 232.022 180.426C232.022 179.966 232.029 179.52 232.042 179.09ZM236.244 179.213C236.25 179.032 236.256 178.832 236.263 178.612C236.269 178.392 236.272 178.169 236.272 177.944C236.272 177.718 236.269 177.502 236.263 177.293C236.257 177.086 236.25 176.9 236.244 176.737C236.232 176.499 236.197 176.292 236.143 176.117C236.089 175.943 236.012 175.807 235.913 175.711C235.814 175.617 235.691 175.567 235.544 175.563C235.398 175.559 235.224 175.614 235.027 175.729C234.829 175.843 234.657 175.987 234.511 176.16C234.363 176.333 234.241 176.525 234.142 176.733C234.042 176.943 233.966 177.167 233.912 177.404C233.857 177.642 233.824 177.888 233.811 178.14C233.799 178.314 233.79 178.508 233.786 178.721C233.784 178.934 233.782 179.154 233.782 179.38C233.782 179.605 233.784 179.826 233.786 180.04C233.79 180.254 233.798 180.446 233.811 180.616C233.836 181.093 233.947 181.436 234.141 181.648C234.335 181.861 234.63 181.853 235.026 181.624C235.422 181.395 235.716 181.064 235.907 180.629C236.1 180.195 236.212 179.723 236.244 179.213Z" fill="#FAFAFA"/>
<path d="M244.246 168.197C244.316 168.157 244.377 168.161 244.429 168.209C244.479 168.259 244.505 168.337 244.505 168.445V170.007C244.505 170.115 244.479 170.224 244.429 170.331C244.377 170.44 244.316 170.514 244.246 170.555L241.385 172.207V174.226L244.055 172.684C244.126 172.644 244.186 172.648 244.237 172.696C244.289 172.745 244.314 172.824 244.314 172.932V174.494C244.314 174.602 244.289 174.71 244.237 174.819C244.186 174.927 244.126 175.001 244.055 175.041L241.385 176.583V179.767C241.385 179.875 241.359 179.984 241.308 180.091C241.257 180.199 241.196 180.274 241.126 180.314L239.871 181.038C239.801 181.078 239.741 181.074 239.689 181.025C239.638 180.977 239.613 180.898 239.613 180.79V171.27C239.613 171.162 239.638 171.054 239.689 170.945C239.741 170.838 239.801 170.763 239.871 170.723L244.246 168.197Z" fill="#FAFAFA"/>
<path d="M250.841 164.242C251.25 164.006 251.625 163.88 251.966 163.865C252.308 163.849 252.603 163.913 252.851 164.054C253.1 164.196 253.296 164.397 253.436 164.659C253.576 164.923 253.649 165.209 253.655 165.52C253.655 165.608 253.634 165.697 253.594 165.784C253.552 165.872 253.507 165.93 253.455 165.959L252.201 166.683C252.111 166.735 252.04 166.756 251.985 166.748C251.931 166.741 251.875 166.714 251.818 166.668C251.799 166.65 251.768 166.619 251.728 166.573C251.686 166.528 251.627 166.492 251.55 166.462C251.473 166.432 251.379 166.423 251.263 166.435C251.148 166.448 251.007 166.502 250.841 166.597C250.721 166.667 250.603 166.747 250.492 166.836C250.38 166.924 250.281 167.021 250.195 167.125C250.109 167.228 250.039 167.346 249.984 167.475C249.93 167.605 249.903 167.743 249.903 167.89C249.903 168.037 249.933 168.143 249.994 168.205C250.054 168.269 250.156 168.301 250.299 168.302C250.443 168.302 250.632 168.273 250.869 168.216C251.105 168.159 251.398 168.083 251.75 167.988C252.101 167.893 252.406 167.854 252.668 167.87C252.93 167.886 253.149 167.969 253.324 168.118C253.498 168.267 253.63 168.486 253.717 168.775C253.802 169.065 253.846 169.44 253.846 169.902C253.846 170.403 253.773 170.892 253.626 171.37C253.479 171.847 253.273 172.303 253.009 172.736C252.744 173.168 252.432 173.563 252.07 173.918C251.71 174.274 251.316 174.575 250.888 174.822C250.454 175.073 250.059 175.213 249.701 175.242C249.344 175.272 249.036 175.217 248.778 175.076C248.519 174.935 248.317 174.725 248.17 174.446C248.023 174.168 247.947 173.843 247.939 173.474C247.939 173.386 247.96 173.297 248.001 173.21C248.044 173.121 248.089 173.064 248.14 173.034L249.395 172.31C249.483 172.259 249.554 172.235 249.605 172.239C249.657 172.245 249.707 172.266 249.759 172.305C249.785 172.329 249.822 172.372 249.873 172.431C249.925 172.49 249.993 172.541 250.08 172.584C250.166 172.628 250.274 172.646 250.405 172.639C250.536 172.633 250.697 172.575 250.888 172.464C251.227 172.269 251.509 172.049 251.735 171.804C251.96 171.562 252.075 171.291 252.075 170.997C252.075 170.849 252.033 170.751 251.95 170.7C251.867 170.649 251.743 170.63 251.577 170.642C251.411 170.654 251.199 170.696 250.94 170.767C250.681 170.838 250.376 170.916 250.026 171.001C249.368 171.165 248.889 171.08 248.585 170.749C248.282 170.418 248.13 169.83 248.13 168.985C248.13 168.562 248.192 168.124 248.317 167.668C248.442 167.213 248.621 166.771 248.858 166.339C249.093 165.908 249.379 165.51 249.714 165.145C250.052 164.784 250.426 164.482 250.841 164.242Z" fill="#FAFAFA"/>
<path d="M260.078 167.015C260.148 166.975 260.209 166.979 260.261 167.027C260.311 167.077 260.337 167.155 260.337 167.263V168.825C260.337 168.933 260.311 169.042 260.261 169.149C260.209 169.257 260.148 169.332 260.078 169.373L255.541 171.992C255.47 172.032 255.41 172.028 255.359 171.979C255.307 171.931 255.282 171.852 255.282 171.744V162.224C255.282 162.116 255.307 162.008 255.359 161.899C255.41 161.792 255.47 161.717 255.541 161.677L260.001 159.102C260.072 159.061 260.133 159.066 260.183 159.114C260.234 159.163 260.261 159.242 260.261 159.35V160.912C260.261 161.02 260.234 161.129 260.183 161.236C260.133 161.344 260.072 161.419 260.001 161.459L257.053 163.161V164.752L259.791 163.172C259.861 163.132 259.921 163.136 259.972 163.186C260.024 163.235 260.049 163.313 260.049 163.421V164.984C260.049 165.092 260.024 165.199 259.972 165.307C259.921 165.416 259.861 165.49 259.791 165.53L257.053 167.11V168.76L260.078 167.015Z" fill="#FAFAFA"/>
<path d="M264.769 156.348C265.19 156.105 265.567 155.956 265.899 155.901C266.23 155.848 266.513 155.891 266.747 156.031C266.98 156.172 267.157 156.42 267.283 156.776C267.407 157.131 267.469 157.595 267.469 158.164C267.469 158.9 267.37 159.569 267.172 160.171C266.975 160.771 266.694 161.304 266.331 161.769L267.517 164.591C267.537 164.639 267.546 164.688 267.546 164.736C267.546 164.824 267.525 164.912 267.484 165C267.442 165.087 267.393 165.148 267.336 165.181L266.035 165.932C265.907 166.006 265.816 166.014 265.762 165.956C265.708 165.899 265.664 165.836 265.633 165.766L264.57 163.225L263.689 163.733V166.887C263.689 166.995 263.663 167.104 263.612 167.211C263.561 167.319 263.5 167.394 263.43 167.434L262.175 168.158C262.105 168.199 262.045 168.194 261.994 168.145C261.942 168.097 261.917 168.018 261.917 167.91V158.39C261.917 158.282 261.942 158.174 261.994 158.065C262.045 157.958 262.105 157.883 262.175 157.843L264.769 156.348ZM263.688 161.438L264.769 160.814C265.037 160.659 265.259 160.452 265.435 160.194C265.61 159.936 265.698 159.6 265.698 159.187C265.698 158.775 265.611 158.539 265.435 158.484C265.259 158.428 265.037 158.478 264.769 158.633L263.688 159.257V161.438Z" fill="#FAFAFA"/>
<path d="M270.856 163.15C270.607 163.294 270.438 163.195 270.349 162.853L268.396 154.77C268.384 154.709 268.375 154.67 268.371 154.652C268.369 154.634 268.367 154.615 268.367 154.595C268.367 154.507 268.388 154.419 268.429 154.331C268.471 154.244 268.519 154.183 268.577 154.15L269.783 153.453C269.911 153.379 270.001 153.368 270.055 153.42C270.11 153.473 270.143 153.534 270.156 153.605L271.487 159.322L272.818 152.069C272.831 151.983 272.865 151.883 272.919 151.768C272.973 151.654 273.064 151.559 273.192 151.485L274.398 150.789C274.455 150.756 274.505 150.759 274.547 150.799C274.589 150.839 274.609 150.903 274.609 150.992C274.609 151.012 274.608 151.032 274.604 151.054C274.601 151.076 274.594 151.124 274.581 151.199L272.628 161.537C272.538 161.983 272.368 162.277 272.12 162.42L270.856 163.15Z" fill="#FAFAFA"/>
<path d="M276.227 160.049C276.156 160.09 276.096 160.085 276.045 160.036C275.993 159.988 275.968 159.909 275.968 159.801V150.281C275.968 150.173 275.993 150.065 276.045 149.956C276.096 149.849 276.156 149.774 276.227 149.734L277.481 149.01C277.551 148.97 277.612 148.974 277.663 149.022C277.714 149.071 277.74 149.15 277.74 149.258V158.778C277.74 158.886 277.714 158.995 277.663 159.102C277.612 159.21 277.551 159.285 277.481 159.325L276.227 160.049Z" fill="#FAFAFA"/>
<path d="M281.098 150.84C281.092 150.971 281.088 151.151 281.084 151.379C281.081 151.607 281.08 151.841 281.08 152.082C281.08 152.323 281.081 152.558 281.084 152.787C281.088 153.016 281.092 153.193 281.098 153.317C281.111 153.535 281.14 153.735 281.184 153.915C281.229 154.096 281.299 154.237 281.395 154.339C281.491 154.44 281.611 154.496 281.759 154.505C281.906 154.513 282.088 154.455 282.304 154.33C282.521 154.205 282.7 154.062 282.84 153.902C282.981 153.743 283.095 153.58 283.185 153.415C283.274 153.251 283.344 153.086 283.391 152.921C283.439 152.755 283.476 152.606 283.501 152.474C283.533 152.298 283.569 152.167 283.606 152.081C283.646 151.995 283.718 151.921 283.827 151.858L285.081 151.134C285.138 151.101 285.188 151.104 285.229 151.144C285.271 151.184 285.29 151.248 285.29 151.337C285.284 151.842 285.204 152.36 285.051 152.891C284.898 153.421 284.688 153.926 284.419 154.404C284.151 154.883 283.836 155.323 283.477 155.722C283.115 156.122 282.725 156.444 282.303 156.687C281.844 156.952 281.434 157.083 281.073 157.08C280.712 157.077 280.404 156.968 280.15 156.751C279.895 156.535 279.698 156.223 279.561 155.816C279.424 155.409 279.346 154.941 279.327 154.412C279.314 154.017 279.307 153.588 279.307 153.126C279.307 152.665 279.313 152.219 279.327 151.788C279.34 151.241 279.415 150.683 279.556 150.115C279.697 149.548 279.892 149.01 280.145 148.501C280.397 147.992 280.705 147.526 281.068 147.106C281.433 146.685 281.844 146.342 282.303 146.076C282.725 145.833 283.115 145.703 283.477 145.687C283.836 145.67 284.151 145.746 284.419 145.916C284.687 146.086 284.898 146.348 285.051 146.701C285.204 147.055 285.284 147.48 285.29 147.977C285.29 148.065 285.27 148.154 285.229 148.241C285.187 148.329 285.138 148.389 285.081 148.422L283.827 149.146C283.718 149.209 283.645 149.22 283.606 149.178C283.569 149.137 283.533 149.046 283.501 148.907C283.476 148.803 283.439 148.698 283.391 148.587C283.344 148.478 283.275 148.392 283.185 148.33C283.096 148.269 282.981 148.239 282.84 148.242C282.7 148.244 282.521 148.308 282.304 148.433C282.088 148.558 281.906 148.71 281.759 148.889C281.611 149.067 281.491 149.261 281.395 149.475C281.299 149.687 281.229 149.909 281.184 150.142C281.14 150.374 281.111 150.608 281.098 150.84Z" fill="#FAFAFA"/>
<path d="M291.551 148.844C291.622 148.803 291.682 148.808 291.734 148.856C291.784 148.906 291.81 148.984 291.81 149.092V150.654C291.81 150.762 291.784 150.871 291.734 150.978C291.682 151.086 291.622 151.161 291.551 151.202L287.014 153.821C286.943 153.862 286.883 153.857 286.832 153.807C286.78 153.759 286.755 153.68 286.755 153.572V144.052C286.755 143.944 286.78 143.836 286.832 143.727C286.883 143.62 286.943 143.545 287.014 143.505L291.474 140.93C291.545 140.89 291.606 140.894 291.656 140.942C291.708 140.991 291.734 141.07 291.734 141.178V142.74C291.734 142.848 291.708 142.957 291.656 143.064C291.606 143.172 291.545 143.247 291.474 143.287L288.526 144.989V146.58L291.264 145C291.334 144.96 291.394 144.964 291.446 145.014C291.497 145.063 291.522 145.141 291.522 145.249V146.812C291.522 146.92 291.497 147.027 291.446 147.136C291.394 147.245 291.334 147.319 291.264 147.359L288.526 148.939V150.589L291.551 148.844Z" fill="#FAFAFA"/>
<path d="M245.527 192.392L257.437 185.516C258.098 185.134 258.635 185.444 258.635 186.207V186.507C258.635 187.271 258.099 188.199 257.438 188.581L245.527 195.456C244.866 195.838 244.33 195.528 244.33 194.765V194.465C244.329 193.703 244.865 192.774 245.527 192.392Z" fill="#FAFAFA"/>
<path d="M193.684 222.324L240.333 195.405C240.994 195.023 241.531 195.333 241.531 196.096V196.396C241.531 197.16 240.995 198.088 240.334 198.47L193.684 225.388C193.023 225.77 192.487 225.46 192.487 224.697V224.397C192.486 223.634 193.023 222.706 193.684 222.324Z" fill="#FAFAFA"/>
<path d="M262.807 182.418L290.654 166.335C291.315 165.953 291.852 166.263 291.852 167.026V167.326C291.852 168.09 291.316 169.018 290.655 169.4L262.807 185.482C262.146 185.864 261.61 185.554 261.61 184.791V184.491C261.61 183.728 262.146 182.799 262.807 182.418Z" fill="#FAFAFA"/>
<path d="M226.412 211.478L238.322 204.602C238.983 204.22 239.52 204.53 239.52 205.293V205.593C239.52 206.357 238.985 207.285 238.323 207.667L226.412 214.542C225.751 214.924 225.214 214.614 225.214 213.851V213.551C225.214 212.788 225.751 211.859 226.412 211.478Z" fill="#FAFAFA"/>
<path d="M244.005 201.295L290.654 174.376C291.315 173.994 291.852 174.304 291.852 175.067V175.367C291.852 176.131 291.316 177.059 290.655 177.441L244.005 204.359C243.344 204.741 242.808 204.431 242.807 203.668V203.368C242.808 202.605 243.344 201.676 244.005 201.295Z" fill="#FAFAFA"/>
<path d="M193.613 230.419L221.46 214.336C222.121 213.954 222.658 214.264 222.658 215.027V215.327C222.658 216.091 222.122 217.019 221.461 217.401L193.613 233.483C192.952 233.865 192.416 233.555 192.416 232.792V232.492C192.415 231.729 192.951 230.8 193.613 230.419Z" fill="#FAFAFA"/>
<path d="M193.684 214.271L214.086 202.49C214.747 202.108 215.284 202.418 215.284 203.181V203.481C215.284 204.245 214.748 205.173 214.087 205.555L193.684 217.335C193.023 217.717 192.487 217.407 192.487 216.644V216.344C192.486 215.582 193.023 214.653 193.684 214.271Z" fill="#FAFAFA"/>
<path d="M272.451 168.795L290.894 158.145C291.555 157.763 292.092 158.073 292.092 158.836V159.136C292.092 159.9 291.556 160.828 290.895 161.21L272.451 171.859C271.79 172.241 271.254 171.931 271.253 171.168V170.868C271.253 170.105 271.789 169.177 272.451 168.795Z" fill="#FAFAFA"/>
<path d="M219.281 199.477L265.93 172.558C266.591 172.176 267.128 172.486 267.128 173.249V173.549C267.128 174.313 266.592 175.241 265.931 175.623L219.281 202.541C218.62 202.923 218.083 202.613 218.083 201.85V201.55C218.083 200.788 218.62 199.859 219.281 199.477Z" fill="#FAFAFA"/>
<path d="M245.527 217.342L257.437 210.466C258.098 210.084 258.635 210.394 258.635 211.157V211.457C258.635 212.221 258.099 213.149 257.438 213.531L245.527 220.406C244.866 220.788 244.33 220.478 244.33 219.715V219.415C244.329 218.652 244.865 217.724 245.527 217.342Z" fill="#FAFAFA"/>
<path d="M193.684 247.273L240.333 220.354C240.994 219.972 241.531 220.282 241.531 221.045V221.345C241.531 222.109 240.995 223.037 240.334 223.419L193.684 250.337C193.023 250.719 192.487 250.409 192.487 249.646V249.346C192.486 248.584 193.023 247.655 193.684 247.273Z" fill="#FAFAFA"/>
<path d="M262.807 207.367L290.654 191.284C291.315 190.902 291.852 191.212 291.852 191.975V192.275C291.852 193.039 291.316 193.967 290.655 194.349L262.807 210.431C262.146 210.813 261.61 210.503 261.61 209.74V209.44C261.61 208.678 262.146 207.749 262.807 207.367Z" fill="#FAFAFA"/>
<path d="M226.412 236.427L238.322 229.551C238.983 229.169 239.52 229.479 239.52 230.242V230.542C239.52 231.306 238.985 232.234 238.323 232.616L226.412 239.491C225.751 239.873 225.214 239.563 225.214 238.8V238.5C225.214 237.738 225.751 236.809 226.412 236.427Z" fill="#FAFAFA"/>
<path d="M244.005 226.244L290.654 199.325C291.315 198.943 291.852 199.253 291.852 200.016V200.316C291.852 201.08 291.316 202.008 290.655 202.39L244.005 229.308C243.344 229.69 242.808 229.38 242.807 228.617V228.317C242.808 227.555 243.344 226.626 244.005 226.244Z" fill="#FAFAFA"/>
<path d="M193.613 255.368L221.46 239.285C222.121 238.903 222.658 239.213 222.658 239.976V240.276C222.658 241.04 222.122 241.968 221.461 242.35L193.613 258.432C192.952 258.814 192.416 258.504 192.416 257.741V257.441C192.415 256.679 192.951 255.75 193.613 255.368Z" fill="#FAFAFA"/>
<path d="M193.684 239.221L214.086 227.44C214.747 227.058 215.284 227.368 215.284 228.131V228.431C215.284 229.195 214.748 230.123 214.087 230.505L193.684 242.285C193.023 242.667 192.487 242.357 192.487 241.594V241.294C192.486 240.531 193.023 239.603 193.684 239.221Z" fill="#FAFAFA"/>
<path d="M272.451 193.745L290.894 183.095C291.555 182.713 292.092 183.023 292.092 183.786V184.086C292.092 184.85 291.556 185.778 290.895 186.16L272.451 196.809C271.79 197.191 271.254 196.881 271.253 196.118V195.818C271.253 195.055 271.789 194.126 272.451 193.745Z" fill="#FAFAFA"/>
<path d="M219.281 224.427L265.93 197.508C266.591 197.126 267.128 197.436 267.128 198.199V198.499C267.128 199.263 266.592 200.191 265.931 200.573L219.281 227.491C218.62 227.873 218.083 227.563 218.083 226.8V226.5C218.083 225.738 218.62 224.809 219.281 224.427Z" fill="#FAFAFA"/>
<path d="M266.832 225.17C269.815 223.448 272.232 224.844 272.232 228.288C272.232 231.732 269.814 235.92 266.832 237.642C263.85 239.364 261.432 237.968 261.432 234.524C261.431 231.08 263.849 226.892 266.832 225.17Z" fill="#27DEBF"/>
<path d="M266.946 235.507C266.689 235.507 266.438 235.407 266.251 235.225L263.879 232.919C263.484 232.535 263.475 231.904 263.858 231.509C264.244 231.114 264.874 231.105 265.268 231.488L266.592 232.776L271.311 221.547C271.524 221.039 272.108 220.802 272.617 221.015C273.125 221.228 273.362 221.814 273.149 222.321L267.864 234.897C267.737 235.201 267.467 235.421 267.143 235.488C267.079 235.5 267.013 235.507 266.946 235.507Z" fill="#FAFAFA"/>
<path opacity="0.3" d="M277.28 220.135L282.237 217.273C283.254 216.686 284.079 217.162 284.079 218.337V224.06C284.079 225.235 283.254 226.663 282.237 227.251L277.28 230.113C276.263 230.7 275.438 230.224 275.438 229.049V223.326C275.438 222.151 276.263 220.722 277.28 220.135Z" fill="white"/>
<path d="M210.634 257.375C213.617 255.653 216.034 257.049 216.034 260.493C216.034 263.937 213.616 268.125 210.634 269.847C207.652 271.569 205.234 270.173 205.234 266.729C205.234 263.284 207.652 259.096 210.634 257.375Z" fill="#F28F8F"/>
<path opacity="0.3" d="M220.983 252.689L225.94 249.827C226.957 249.24 227.782 249.716 227.782 250.891V256.614C227.782 257.789 226.957 259.217 225.94 259.805L220.983 262.667C219.966 263.254 219.141 262.778 219.141 261.603V255.88C219.141 254.705 219.965 253.276 220.983 252.689Z" fill="white"/>
<path d="M212.652 266.549C212.403 266.549 212.155 266.457 211.961 266.271L207.941 262.405C207.544 262.022 207.531 261.391 207.912 260.995C208.295 260.596 208.926 260.587 209.322 260.966L213.342 264.832C213.739 265.215 213.752 265.846 213.371 266.242C213.175 266.446 212.913 266.549 212.652 266.549Z" fill="#FAFAFA"/>
<path d="M208.455 269.219C208.314 269.219 208.168 269.188 208.031 269.123C207.532 268.888 207.319 268.295 207.556 267.796L211.912 258.573C212.147 258.076 212.738 257.862 213.239 258.098C213.738 258.333 213.95 258.926 213.714 259.425L209.358 268.648C209.187 269.009 208.829 269.219 208.455 269.219Z" fill="#FAFAFA"/>
<path d="M375.649 98.838L372.365 92.664L375.007 85.038V80.37L366.922 85.038V89.706L370.398 95.727C370.457 95.829 370.541 95.895 370.634 95.937L370.632 95.94L375.649 98.838Z" fill="#FF8311"/>
<path opacity="0.2" d="M375.649 98.838L372.365 92.664L375.007 85.038V80.37L366.922 85.038V89.706L370.398 95.727C370.457 95.829 370.541 95.895 370.634 95.937L370.632 95.94L375.649 98.838Z" fill="black"/>
<path d="M394.957 43.262C394.957 41.716 393.872 39.837 392.533 39.063L390.559 37.924C389.221 37.151 387.05 37.151 385.711 37.924L355.442 55.431C354.103 56.204 353.018 58.083 353.018 59.63V92.934C353.018 94.48 354.104 96.36 355.442 97.133L357.416 98.273C358.755 99.046 360.925 99.046 362.264 98.273L371.999 92.649L375.468 98.658C375.69 99.042 376.26 98.988 376.406 98.569L380.072 87.986L392.534 80.767C393.873 79.994 394.958 78.115 394.958 76.569L394.957 43.262Z" fill="#FF8311"/>
<path opacity="0.2" d="M353.019 92.933C353.019 94.479 354.104 96.359 355.443 97.132L357.417 98.272C358.627 98.971 360.51 99.031 361.851 98.467C360.71 98.898 359.842 98.255 359.842 96.872V63.568C359.842 62.795 360.113 61.939 360.552 61.179L353.73 57.241C353.291 58.001 353.02 58.857 353.02 59.63L353.019 92.933Z" fill="black"/>
<path opacity="0.5" d="M394.878 42.573C394.595 41.544 393.657 41.216 392.537 41.861L362.263 59.372C361.596 59.756 360.985 60.412 360.555 61.181L353.736 57.246C354.177 56.477 354.776 55.821 355.443 55.436L385.706 37.925C387.052 37.156 389.223 37.156 390.558 37.925L392.537 39.067C393.679 39.723 394.64 41.193 394.878 42.573Z" fill="white"/>
<path d="M387.484 51.175C386.067 50.582 384.432 51.248 383.841 52.661L373.324 77.683L370.819 75.247C369.724 74.18 367.96 74.204 366.885 75.305C365.818 76.404 365.843 78.169 366.942 79.238L372.371 84.515C372.893 85.022 373.581 85.301 374.31 85.301C374.494 85.301 374.677 85.283 374.865 85.246C375.768 85.061 376.52 84.445 376.875 83.598L388.971 54.818C389.564 53.402 388.897 51.768 387.484 51.175Z" fill="#FAFAFA"/>
<path d="M394.821 164.03C401.935 164.03 405.505 166.393 408.479 172.887C411.323 179.099 418.224 200.994 417.786 205.365C417.348 209.737 402.104 228.689 402.104 228.689L395.71 220.876L406.074 204.045L396.362 183.798L394.821 164.03Z" fill="#FFA8A7"/>
<path d="M390.564 350.696L385.036 358.377C385.036 358.377 387.793 360.841 393.262 361.049C398.208 361.237 399.567 359.373 399.75 358.982C400.225 357.963 400.013 355.899 399.839 353.81C399.707 352.232 399.75 349.525 398.799 349.525L390.564 350.696Z" fill="#263238"/>
<path d="M382.374 352.783C382.374 352.783 371.593 354.372 369.061 354.101C366.452 354.346 362.513 354.37 360.502 354.948C357.179 355.903 359.246 360.947 365.512 362.624C369.53 363.7 376.068 363.773 380.184 365.005C384.401 366.267 387.204 368.083 392.002 366.721C395.261 365.796 395.396 363.172 395.08 361.245C394.552 358.03 394.467 354.918 392.725 354.577C390.559 354.153 382.374 352.783 382.374 352.783Z" fill="#263238"/>
<path d="M409.492 231.14C408.557 223.067 404.169 216.74 399.552 209.557L387.621 244.699L384.579 255.712C384.579 255.712 384.789 280.957 385.175 287C385.561 293.043 389.618 342.165 389.618 342.165L390.354 351.86C397.224 353.765 398.663 351.957 398.727 350.46C398.791 348.962 399.553 342.977 399.553 342.977C399.553 342.977 406.067 307.062 406.329 301.859C406.843 291.664 403.788 283.957 403.788 283.957C405.164 271.351 411.468 248.188 409.492 231.14Z" fill="#FFA8A7"/>
<path d="M389.619 342.165L390.355 351.86C397.225 353.765 398.664 351.957 398.728 350.46C398.743 350.115 398.795 349.528 398.866 348.837C397.758 351.322 395.489 350.6 394.191 347.059C392.893 343.519 387.202 312.66 387.201 312.656C388.376 327.118 389.619 342.165 389.619 342.165Z" fill="#F28F8F"/>
<path d="M399.552 209.557L364.596 213.588C364.596 213.588 355.974 275.295 355.31 281.119C354.204 290.832 356.995 296.364 358.737 299.917C361.066 304.667 379.55 345.31 381.717 352.783C381.717 352.783 372.702 353.76 369.056 354.086C364.843 355.194 366.705 356.668 367.987 357.547C369.584 358.642 372.939 358.549 376.606 358.813C380.52 359.094 383.912 358.927 387.248 358.97C392.998 359.043 393.26 356.367 393.26 356.367C392.406 352.621 391.684 348.852 391.096 345.055C389.346 333.753 385.614 310.761 383.133 303.326C381.211 297.566 375.925 290.533 375.925 290.533L387.621 244.699C400.83 240.771 405.148 235.13 406.67 227.104C407.925 220.481 402.022 213.588 399.552 209.557Z" fill="#FFA8A7"/>
<path d="M378.19 157.523L379.63 172.534L393.047 171.7L391.973 155.052L378.19 157.523Z" fill="#FFA8A7"/>
<path d="M405.102 170.397C403.739 166.422 400.959 164.097 394.821 164.03L392.556 164.1C392.125 166.313 385.518 168.108 378.988 165.842C376.397 165.889 370.577 167.324 370.577 167.324C370.648 167.213 364.196 176.795 363.684 189.677C363.511 194.046 364.023 198.898 364.935 207.947C363.389 218.279 359.766 238.019 357.449 259.011C357.449 259.011 360.384 259.486 362.546 257.165C364.036 255.566 365.72 252.642 367.428 242.684C367.456 255.27 370.632 259.687 375.008 262.462C377.899 264.295 382.604 265.953 386.953 265.619C403.382 264.357 406.537 261.624 408.682 256.678C410.934 240.352 411.071 232.385 409.869 227.536C408.667 222.688 406.091 218.684 402.71 212.485C401.288 209.878 399.349 205.037 399.729 203.553C401.572 196.359 404.551 189.404 405.388 182.965C406.082 177.64 406.018 173.067 405.102 170.397Z" fill="#FF8311"/>
<g opacity="0.6">
<path d="M405.102 170.397C403.739 166.422 400.959 164.097 394.821 164.03L392.556 164.1C392.125 166.313 385.518 168.108 378.988 165.842C376.397 165.889 370.577 167.324 370.577 167.324C370.648 167.213 364.196 176.795 363.684 189.677C363.511 194.046 364.023 198.898 364.935 207.947C363.389 218.279 359.766 238.019 357.449 259.011C357.449 259.011 360.384 259.486 362.546 257.165C364.036 255.566 365.72 252.642 367.428 242.684C367.456 255.27 370.632 259.687 375.008 262.462C377.899 264.295 382.604 265.953 386.953 265.619C403.382 264.357 406.537 261.624 408.682 256.678C410.934 240.352 411.071 232.385 409.869 227.536C408.667 222.688 406.091 218.684 402.71 212.485C401.288 209.878 399.349 205.037 399.729 203.553C401.572 196.359 404.551 189.404 405.388 182.965C406.082 177.64 406.018 173.067 405.102 170.397Z" fill="black"/>
</g>
<path d="M370.577 167.324C363.389 167.66 360.217 174.53 359.916 180.976C359.36 192.895 358.581 203.607 356.877 208.654C355.057 214.045 343.409 225.162 339.882 226.162C336.355 227.162 331.678 225.156 330.431 226.901C329.184 228.645 334.235 229.305 334.41 230.208C334.585 231.111 328.048 233.075 324.326 232.426C320.604 231.777 321.557 238.154 327.142 240.662C332.727 243.17 339.956 241.178 346.707 236.269C353.458 231.36 365.794 221.539 368.892 214.088C372.958 204.31 373.976 198.289 374.95 191.362C378.19 169.74 370.577 167.324 370.577 167.324Z" fill="#FFA8A7"/>
<path d="M361.008 128.659C360.909 127.953 360.914 127.236 361.041 126.533C361.371 124.712 362.535 123.06 364.138 122.135C365.741 121.21 367.754 121.031 369.495 121.656C368.91 118.921 370.486 115.88 373.059 114.782C375.004 113.951 377.283 114.195 379.229 115.025C380.343 115.5 381.435 116.222 381.918 117.332C383.266 115.072 386.025 113.741 388.634 114.093C391.242 114.445 393.55 116.459 394.251 118.996C396.289 118.541 399.176 119.45 400.087 121.478C401.125 123.787 399.854 126.64 400.331 129.062C400.639 130.624 401.311 132.096 401.602 133.682C401.926 135.448 402.031 137.246 402.101 139.037C402.39 146.448 385.189 151.266 385.529 156.346C382.473 152.627 379.416 148.908 376.36 145.189C376.36 144.725 375.066 143.57 374.772 143.178C374.223 142.443 373.735 141.654 373.23 140.885C371.601 138.407 369.511 137.103 366.91 135.831C365.141 134.966 363.513 133.746 362.391 132.128C361.676 131.098 361.182 129.896 361.008 128.659Z" fill="#263238"/>
<path d="M368.237 141.051C368.237 141.051 365.266 145.466 365.654 145.932C366.042 146.399 367.93 146.896 367.93 146.896L368.237 141.051Z" fill="#F28F8F"/>
<path d="M377.316 127.064C374.428 128.531 369.437 131.241 368.153 141.697C366.836 152.431 369.267 156.161 370.756 157.568C371.761 158.517 376.947 158.862 379.652 158.037C383.037 157.004 390.369 153.442 393.807 147.903C397.851 141.385 398.686 132.698 394.018 129.292C387.449 124.498 379.761 125.823 377.316 127.064Z" fill="#FFA8A7"/>
<path d="M371.034 157.759C372.249 158.428 375.698 158.706 378.268 158.33L378.19 156.402C378.19 156.402 376.753 157.068 374.767 157.517C372.792 157.965 371.055 157.762 371.034 157.759Z" fill="#F28F8F"/>
<path d="M376.048 126.746C374.862 127.252 373.719 127.752 372.688 128.681C372.205 129.117 371.755 129.611 371.498 130.209C371.266 130.749 371.202 131.352 371.257 131.937C371.405 133.541 372.479 135.026 373.956 135.669C373.176 136.723 372.901 138.135 373.229 139.405C373.62 140.922 374.77 142.108 375.875 143.218C375.94 143.283 376.008 143.35 376.095 143.378C376.259 143.43 376.428 143.33 376.571 143.235C378.385 142.022 379.505 139.927 382.07 140.769C385.435 141.873 385.273 146.027 382.632 148.616C381.488 149.737 380.057 150.242 379.115 150.278C378.011 150.32 377.263 149.624 377.263 149.624C377.263 149.624 377.354 155.042 382.066 157.187C382.066 157.187 387.301 158.861 392.12 157.307C393.895 155.054 396.872 152.17 399.324 149.594C407.401 141.106 407.861 128.775 395.953 124.88C395.543 124.746 395.128 124.623 394.711 124.512C390.903 123.497 386.855 123.442 383.005 124.261C381.079 124.67 379.2 125.299 377.421 126.143C376.958 126.36 376.5 126.553 376.048 126.746Z" fill="#263238"/>
<path d="M375.666 147.001C374.347 146.532 373.663 145.101 374.14 143.804C374.617 142.507 376.073 141.835 377.393 142.304L375.666 147.001Z" fill="#263238"/>
</svg>
