<svg width="4431" height="1291" viewBox="0 0 4431 1291" fill="none" xmlns="http://www.w3.org/2000/svg">
<circle cx="645.5" cy="645.5" r="645.5" fill="#004FB2"/>
<circle cx="645" cy="646" r="292" stroke="white" stroke-width="143"/>
<path d="M645 798L645 1074" stroke="white" stroke-width="143" stroke-linecap="round"/>
<path d="M2110.34 1038.02V775.708C2074.5 811.544 2037.08 838.948 1998.2 857.789C1959.33 876.629 1916.37 886.115 1869.07 886.115C1811.35 886.115 1758.77 870.832 1711.33 840.529C1663.89 810.095 1626.6 766.354 1599.59 709.438C1572.57 652.522 1559 585.329 1559 508.123C1559 430.918 1572.57 361.354 1599.85 304.833C1627.13 248.312 1664.95 205.229 1713.31 175.717C1761.67 146.205 1815.43 131.449 1874.47 131.449C1924.41 131.449 1969.21 141.858 2008.75 162.411C2048.28 183.095 2082.14 214.584 2110.21 256.744V234.214C2110.21 200.223 2118.38 174.268 2134.72 156.614C2151.06 138.959 2172.15 130 2198.11 130C2224.07 130 2245.15 138.696 2261.49 156.218C2277.83 173.741 2286 199.696 2286 234.214V1038.02C2286 1120.63 2256.75 1162 2198.11 1162C2161.74 1162 2138.02 1150.93 2126.95 1128.67C2115.75 1106.4 2110.21 1076.23 2110.21 1038.02H2110.34ZM1745.86 506.674C1745.86 556.607 1753.89 599.69 1770.1 635.789C1786.18 671.889 1807.39 698.634 1833.75 716.157C1860.1 733.68 1888.44 742.375 1918.88 742.375C1952.08 742.375 1982.52 733.68 2010.2 716.157C2037.87 698.634 2060.14 672.021 2077.01 636.053C2093.74 600.217 2102.17 555.949 2102.17 503.249C2102.17 465.963 2097.3 432.367 2087.55 402.46C2077.8 372.552 2064.49 347.651 2047.75 327.889C2030.88 308.126 2011.65 293.37 1989.9 283.621C1968.16 273.871 1944.97 268.997 1920.46 268.997C1870.51 268.997 1828.87 289.681 1795.8 331.051C1762.59 372.421 1746.12 430.918 1746.12 506.806L1745.86 506.674Z" fill="#004FB2"/>
<path d="M3091.75 521.566V768.781C3091.75 807.766 3082.92 837.137 3065.13 856.629C3047.47 876.122 3024.02 885.868 2994.9 885.868C2965.77 885.868 2943.9 876.122 2926.37 856.629C2908.85 837.137 2900.15 807.766 2900.15 768.781V472.571C2900.15 425.815 2898.57 389.463 2895.41 363.649C2892.24 337.834 2883.55 316.498 2869.58 300.034C2855.48 283.439 2833.21 275.141 2802.77 275.141C2741.89 275.141 2701.83 296.083 2682.46 337.834C2663.09 379.585 2653.47 439.512 2653.47 517.615V768.912C2653.47 807.502 2644.77 836.61 2627.24 856.366C2609.72 876.122 2586.66 886 2558.06 886C2529.47 886 2506.8 876.122 2488.88 856.366C2470.96 836.61 2462 807.502 2462 768.912V236.946C2462 202.044 2470.04 175.439 2486.25 157.263C2502.32 139.088 2523.54 130 2549.89 130C2576.25 130 2596.54 138.561 2613.54 155.551C2630.54 172.541 2639.1 196.117 2639.1 226.015V243.663C2671.39 205.073 2705.91 176.756 2742.68 158.58C2779.44 140.405 2820.29 131.317 2865.36 131.317C2910.43 131.317 2952.33 140.668 2985.93 159.239C3019.54 177.81 3047.21 205.995 3069.08 243.663C3100.45 205.468 3134.05 177.283 3169.89 158.844C3205.73 140.405 3245.53 131.317 3289.15 131.317C3340.01 131.317 3383.89 141.327 3420.66 161.346C3457.42 181.366 3484.96 209.946 3503.15 247.088C3519.09 280.673 3527 333.62 3527 405.795V768.781C3527 807.766 3518.17 837.137 3500.38 856.629C3482.59 876.122 3459.27 885.868 3430.15 885.868C3401.02 885.868 3378.89 875.99 3360.96 856.234C3343.04 836.478 3334.08 807.371 3334.08 768.781V456.239C3334.08 416.332 3332.37 384.327 3328.94 360.224C3325.52 336.122 3316.29 315.971 3301.4 299.639C3286.38 283.307 3263.71 275.141 3233.27 275.141C3208.76 275.141 3185.44 282.385 3163.43 296.873C3141.43 311.361 3124.3 330.854 3112.04 355.483C3098.47 386.829 3091.62 442.146 3091.62 521.698L3091.75 521.566Z" fill="#004FB2"/>
<path d="M3879.59 234.201V256.728C3914.52 213.651 3950.9 181.903 3988.6 161.748C4026.31 141.593 4069.02 131.449 4116.74 131.449C4173.95 131.449 4226.68 146.203 4274.92 175.712C4323.04 205.22 4361.13 248.297 4389.08 305.074C4417.03 361.851 4431 429.035 4431 506.626C4431 563.798 4422.96 616.36 4406.74 664.311C4390.66 712.262 4368.52 752.441 4340.31 784.847C4312.1 817.254 4278.88 842.283 4240.52 859.803C4202.16 877.324 4160.9 886.018 4116.87 886.018C4063.74 886.018 4019.06 875.348 3982.94 854.007C3946.82 832.666 3912.41 801.314 3879.72 760.081V1039.36C3879.72 1121.03 3849.93 1162 3790.48 1162C3755.54 1162 3732.34 1151.46 3721 1130.38C3709.67 1109.31 3704 1078.48 3704 1038.04V235.519C3704 200.082 3711.78 173.604 3727.2 156.215C3742.62 138.694 3763.72 130 3790.61 130C3817.5 130 3838.46 138.958 3855.07 156.874C3871.68 174.789 3879.98 200.609 3879.98 234.201H3879.59ZM4244.21 504.65C4244.21 455.645 4236.69 413.49 4221.67 378.318C4206.64 343.145 4185.94 316.139 4159.31 297.301C4132.69 278.464 4103.29 268.979 4070.99 268.979C4019.58 268.979 3976.34 289.134 3941.15 329.576C3905.95 370.018 3888.29 429.43 3888.29 508.075C3888.29 582.109 3905.82 639.677 3940.75 680.778C3975.69 721.878 4019.19 742.429 4070.99 742.429C4101.84 742.429 4130.58 733.471 4156.81 715.555C4183.17 697.64 4204.27 670.766 4220.22 634.803C4236.17 598.971 4244.08 555.631 4244.08 504.65H4244.21Z" fill="#004FB2"/>
</svg>
