<svg xmlns="http://www.w3.org/2000/svg" width="194" height="194" viewBox="0 0 194 194" fill="none">
<g clip-path="url(#clip0_4408_629)">
<path opacity="0.933" fill-rule="evenodd" clip-rule="evenodd" d="M91.8848 -0.189453C95.1687 -0.189453 98.4523 -0.189453 101.736 -0.189453C118.184 0.798246 133.466 5.59773 147.584 14.209C152.176 10.2866 157.354 9.33936 163.119 11.3672C169.459 14.7133 172.048 19.9549 170.887 27.0918C168.421 34.9802 163.053 38.4537 154.783 37.5117C147.71 35.8068 144.047 31.3231 143.795 24.0605C143.766 22.2504 144.018 20.4822 144.553 18.7559C141.787 16.5745 138.756 14.7432 135.459 13.2617C106.351 0.735685 77.9331 2.12501 50.2051 17.4297C21.12 35.7343 5.96376 62.1944 4.73633 96.8106C5.03316 103.023 5.4752 109.212 6.0625 115.377C4.77539 116.696 3.38605 116.822 1.89453 115.756C0.851239 111.21 0.156577 106.663 -0.189453 102.115C-0.189453 98.5789 -0.189453 95.0422 -0.189453 91.5059C3.46038 52.696 22.7846 24.8463 57.7832 7.95703C68.7416 3.32241 80.1087 0.606913 91.8848 -0.189453Z" fill="url(#paint0_linear_4408_629)"/>
<path opacity="0.989" fill-rule="evenodd" clip-rule="evenodd" d="M96.4317 25.5762C97.7067 25.8188 98.9696 26.1346 100.221 26.5234C114.211 36.9193 129.747 44.1187 146.826 48.1211C152.372 48.9532 157.929 49.5848 163.498 50.0156C166.367 51.7112 167.757 54.2374 167.666 57.5938C167.852 76.877 164.505 95.5064 157.625 113.482C147.227 136.762 130.998 154.76 108.936 167.477C105.904 169.118 102.873 170.761 99.8418 172.402C97.8211 173.16 95.8 173.16 93.7793 172.402C78.5583 164.886 65.2337 154.845 53.8047 142.279C38.4829 123.869 29.6416 102.651 27.2813 78.623C26.6097 71.6281 26.1676 64.6183 25.9551 57.5938C25.8775 54.209 27.2669 51.6828 30.1231 50.0156C45.2028 49.498 59.4747 45.8352 72.9395 39.0273C80.0595 35.3105 86.8798 31.1425 93.4004 26.5234C94.4651 26.227 95.4757 25.9113 96.4317 25.5762ZM93.4004 63.8457C107.423 63.4054 114.685 70.2257 115.188 84.3066C118.335 85.9378 120.356 88.464 121.25 91.8848C121.664 96.7973 121.854 101.723 121.818 106.662C121.854 111.601 121.664 116.527 121.25 121.439C120.05 125.671 117.335 128.386 113.104 129.586C107.686 130.003 102.254 130.193 96.8106 130.154C91.3668 130.193 85.9356 130.003 80.5176 129.586C76.2864 128.386 73.5711 125.671 72.3711 121.439C71.7675 112.484 71.641 103.517 71.9922 94.5371C72.2881 89.9497 74.4354 86.5395 78.4336 84.3066C78.1877 73.5275 83.1764 66.7072 93.4004 63.8457Z" fill="url(#paint1_linear_4408_629)"/>
<path opacity="0.972" fill-rule="evenodd" clip-rule="evenodd" d="M96.0527 67.6348C105.851 68.2122 110.651 73.3907 110.451 83.1699C101.357 83.1699 92.2637 83.1699 83.1699 83.1699C82.8179 74.0553 87.112 68.8768 96.0527 67.6348Z" fill="url(#paint2_linear_4408_629)"/>
<path opacity="0.935" fill-rule="evenodd" clip-rule="evenodd" d="M193.811 91.5056C193.811 95.042 193.811 98.5787 193.811 102.115C190.179 140.901 170.855 168.751 135.838 185.664C124.996 190.238 113.755 192.953 102.115 193.81C98.4523 193.81 94.7898 193.81 91.127 193.81C71.5114 192.408 53.8289 185.841 38.0801 174.107C34.2394 176.957 29.9452 177.904 25.1973 176.949C17.5948 174.841 13.5531 169.852 13.0723 161.982C13.8374 152.376 19.0158 147.198 28.6074 146.447C36.3087 146.884 41.2978 150.8 43.5742 158.193C43.7284 159.399 43.9179 160.599 44.1426 161.793C44.0149 164.836 43.1305 167.615 41.4902 170.129C63.2122 186.272 87.4622 191.956 114.24 187.179C145.688 180.149 168.107 162.024 181.496 132.806C189.253 114.055 190.832 94.7942 186.232 75.0232C186.541 72.7346 187.804 71.9768 190.021 72.7498C190.337 73.0654 190.653 73.3814 190.969 73.697C192.364 79.6174 193.311 85.5534 193.811 91.5056Z" fill="url(#paint3_linear_4408_629)"/>
<path opacity="0.948" fill-rule="evenodd" clip-rule="evenodd" d="M96.0527 94.916C100.614 95.1873 102.445 97.5873 101.547 102.115C101.231 102.747 100.915 103.378 100.6 104.01C101.454 107.648 102.211 111.311 102.873 114.998C102.817 116.184 102.311 117.131 101.357 117.84C98.3262 118.093 95.2949 118.093 92.2637 117.84C90.9242 116.814 90.482 115.488 90.9375 113.861C91.5604 110.558 92.2549 107.274 93.0215 104.01C90.7029 99.7327 91.7131 96.7014 96.0527 94.916Z" fill="url(#paint4_linear_4408_629)"/>
</g>
<defs>
<linearGradient id="paint0_linear_4408_629" x1="85.4836" y1="-0.189453" x2="85.4836" y2="116.471" gradientUnits="userSpaceOnUse">
<stop stop-color="#004FB2"/>
<stop offset="1" stop-color="#0071FF"/>
</linearGradient>
<linearGradient id="paint1_linear_4408_629" x1="96.8127" y1="25.5762" x2="96.8127" y2="172.971" gradientUnits="userSpaceOnUse">
<stop stop-color="#004FB2"/>
<stop offset="1" stop-color="#0071FF"/>
</linearGradient>
<linearGradient id="paint2_linear_4408_629" x1="96.8035" y1="67.6348" x2="96.8035" y2="83.1699" gradientUnits="userSpaceOnUse">
<stop stop-color="#004FB2"/>
<stop offset="1" stop-color="#0071FF"/>
</linearGradient>
<linearGradient id="paint3_linear_4408_629" x1="103.441" y1="72.457" x2="103.441" y2="193.81" gradientUnits="userSpaceOnUse">
<stop stop-color="#004FB2"/>
<stop offset="1" stop-color="#0071FF"/>
</linearGradient>
<linearGradient id="paint4_linear_4408_629" x1="96.8186" y1="94.916" x2="96.8186" y2="118.029" gradientUnits="userSpaceOnUse">
<stop stop-color="#004FB2"/>
<stop offset="1" stop-color="#0071FF"/>
</linearGradient>
<clipPath id="clip0_4408_629">
<rect width="194" height="194" fill="white"/>
</clipPath>
</defs>
</svg>